solid circle
  facet normal 0 0 1
    outer loop
      vertex 0 0 0
      vertex 1 0 0
      vertex 0.998027 0.0627905 0
    endloop
  endfacet
  facet normal 0 0 1
    outer loop
      vertex 0 0 0
      vertex 0.998027 0.0627905 0
      vertex 0.992115 0.125333 0
    endloop
  endfacet
  facet normal 0 0 1
    outer loop
      vertex 0 0 0
      vertex 0.992115 0.125333 0
      vertex 0.982287 0.187381 0
    endloop
  endfacet
  facet normal 0 0 1
    outer loop
      vertex 0 0 0
      vertex 0.982287 0.187381 0
      vertex 0.968583 0.24869 0
    endloop
  endfacet
  facet normal 0 0 1
    outer loop
      vertex 0 0 0
      vertex 0.968583 0.24869 0
      vertex 0.951057 0.309017 0
    endloop
  endfacet
  facet normal 0 0 1
    outer loop
      vertex 0 0 0
      vertex 0.951057 0.309017 0
      vertex 0.929776 0.368125 0
    endloop
  endfacet
  facet normal 0 0 1
    outer loop
      vertex 0 0 0
      vertex 0.929776 0.368125 0
      vertex 0.904827 0.425779 0
    endloop
  endfacet
  facet normal 0 0 1
    outer loop
      vertex 0 0 0
      vertex 0.904827 0.425779 0
      vertex 0.876307 0.481754 0
    endloop
  endfacet
  facet normal 0 0 1
    outer loop
      vertex 0 0 0
      vertex 0.876307 0.481754 0
      vertex 0.844328 0.535827 0
    endloop
  endfacet
  facet normal 0 0 1
    outer loop
      vertex 0 0 0
      vertex 0.844328 0.535827 0
      vertex 0.809017 0.587785 0
    endloop
  endfacet
  facet normal 0 0 1
    outer loop
      vertex 0 0 0
      vertex 0.809017 0.587785 0
      vertex 0.770513 0.637424 0
    endloop
  endfacet
  facet normal 0 0 1
    outer loop
      vertex 0 0 0
      vertex 0.770513 0.637424 0
      vertex 0.728969 0.684547 0
    endloop
  endfacet
  facet normal 0 0 1
    outer loop
      vertex 0 0 0
      vertex 0.728969 0.684547 0
      vertex 0.684547 0.728969 0
    endloop
  endfacet
  facet normal 0 0 1
    outer loop
      vertex 0 0 0
      vertex 0.684547 0.728969 0
      vertex 0.637424 0.770513 0
    endloop
  endfacet
  facet normal 0 0 1
    outer loop
      vertex 0 0 0
      vertex 0.637424 0.770513 0
      vertex 0.587785 0.809017 0
    endloop
  endfacet
  facet normal 0 0 1
    outer loop
      vertex 0 0 0
      vertex 0.587785 0.809017 0
      vertex 0.535827 0.844328 0
    endloop
  endfacet
  facet normal 0 0 1
    outer loop
      vertex 0 0 0
      vertex 0.535827 0.844328 0
      vertex 0.481754 0.876307 0
    endloop
  endfacet
  facet normal 0 0 1
    outer loop
      vertex 0 0 0
      vertex 0.481754 0.876307 0
      vertex 0.425779 0.904827 0
    endloop
  endfacet
  facet normal 0 0 1
    outer loop
      vertex 0 0 0
      vertex 0.425779 0.904827 0
      vertex 0.368125 0.929776 0
    endloop
  endfacet
  facet normal 0 0 1
    outer loop
      vertex 0 0 0
      vertex 0.368125 0.929776 0
      vertex 0.309017 0.951057 0
    endloop
  endfacet
  facet normal 0 0 1
    outer loop
      vertex 0 0 0
      vertex 0.309017 0.951057 0
      vertex 0.24869 0.968583 0
    endloop
  endfacet
  facet normal 0 0 1
    outer loop
      vertex 0 0 0
      vertex 0.24869 0.968583 0
      vertex 0.187381 0.982287 0
    endloop
  endfacet
  facet normal 0 0 1
    outer loop
      vertex 0 0 0
      vertex 0.187381 0.982287 0
      vertex 0.125333 0.992115 0
    endloop
  endfacet
  facet normal 0 0 1
    outer loop
      vertex 0 0 0
      vertex 0.125333 0.992115 0
      vertex 0.0627905 0.998027 0
    endloop
  endfacet
  facet normal 0 0 1
    outer loop
      vertex 0 0 0
      vertex 0.0627905 0.998027 0
      vertex 6.12323e-17 1 0
    endloop
  endfacet
  facet normal 0 0 1
    outer loop
      vertex 0 0 0
      vertex 6.12323e-17 1 0
      vertex -0.0627905 0.998027 0
    endloop
  endfacet
  facet normal 0 0 1
    outer loop
      vertex 0 0 0
      vertex -0.0627905 0.998027 0
      vertex -0.125333 0.992115 0
    endloop
  endfacet
  facet normal 0 0 1
    outer loop
      vertex 0 0 0
      vertex -0.125333 0.992115 0
      vertex -0.187381 0.982287 0
    endloop
  endfacet
  facet normal 0 0 1
    outer loop
      vertex 0 0 0
      vertex -0.187381 0.982287 0
      vertex -0.24869 0.968583 0
    endloop
  endfacet
  facet normal 0 0 1
    outer loop
      vertex 0 0 0
      vertex -0.24869 0.968583 0
      vertex -0.309017 0.951057 0
    endloop
  endfacet
  facet normal 0 0 1
    outer loop
      vertex 0 0 0
      vertex -0.309017 0.951057 0
      vertex -0.368125 0.929776 0
    endloop
  endfacet
  facet normal 0 0 1
    outer loop
      vertex 0 0 0
      vertex -0.368125 0.929776 0
      vertex -0.425779 0.904827 0
    endloop
  endfacet
  facet normal 0 0 1
    outer loop
      vertex 0 0 0
      vertex -0.425779 0.904827 0
      vertex -0.481754 0.876307 0
    endloop
  endfacet
  facet normal 0 0 1
    outer loop
      vertex 0 0 0
      vertex -0.481754 0.876307 0
      vertex -0.535827 0.844328 0
    endloop
  endfacet
  facet normal 0 0 1
    outer loop
      vertex 0 0 0
      vertex -0.535827 0.844328 0
      vertex -0.587785 0.809017 0
    endloop
  endfacet
  facet normal 0 0 1
    outer loop
      vertex 0 0 0
      vertex -0.587785 0.809017 0
      vertex -0.637424 0.770513 0
    endloop
  endfacet
  facet normal 0 0 1
    outer loop
      vertex 0 0 0
      vertex -0.637424 0.770513 0
      vertex -0.684547 0.728969 0
    endloop
  endfacet
  facet normal 0 0 1
    outer loop
      vertex 0 0 0
      vertex -0.684547 0.728969 0
      vertex -0.728969 0.684547 0
    endloop
  endfacet
  facet normal 0 0 1
    outer loop
      vertex 0 0 0
      vertex -0.728969 0.684547 0
      vertex -0.770513 0.637424 0
    endloop
  endfacet
  facet normal 0 0 1
    outer loop
      vertex 0 0 0
      vertex -0.770513 0.637424 0
      vertex -0.809017 0.587785 0
    endloop
  endfacet
  facet normal 0 0 1
    outer loop
      vertex 0 0 0
      vertex -0.809017 0.587785 0
      vertex -0.844328 0.535827 0
    endloop
  endfacet
  facet normal 0 0 1
    outer loop
      vertex 0 0 0
      vertex -0.844328 0.535827 0
      vertex -0.876307 0.481754 0
    endloop
  endfacet
  facet normal 0 0 1
    outer loop
      vertex 0 0 0
      vertex -0.876307 0.481754 0
      vertex -0.904827 0.425779 0
    endloop
  endfacet
  facet normal 0 0 1
    outer loop
      vertex 0 0 0
      vertex -0.904827 0.425779 0
      vertex -0.929776 0.368125 0
    endloop
  endfacet
  facet normal 0 0 1
    outer loop
      vertex 0 0 0
      vertex -0.929776 0.368125 0
      vertex -0.951057 0.309017 0
    endloop
  endfacet
  facet normal 0 0 1
    outer loop
      vertex 0 0 0
      vertex -0.951057 0.309017 0
      vertex -0.968583 0.24869 0
    endloop
  endfacet
  facet normal 0 0 1
    outer loop
      vertex 0 0 0
      vertex -0.968583 0.24869 0
      vertex -0.982287 0.187381 0
    endloop
  endfacet
  facet normal 0 0 1
    outer loop
      vertex 0 0 0
      vertex -0.982287 0.187381 0
      vertex -0.992115 0.125333 0
    endloop
  endfacet
  facet normal 0 0 1
    outer loop
      vertex 0 0 0
      vertex -0.992115 0.125333 0
      vertex -0.998027 0.0627905 0
    endloop
  endfacet
  facet normal 0 0 1
    outer loop
      vertex 0 0 0
      vertex -0.998027 0.0627905 0
      vertex -1 1.22465e-16 0
    endloop
  endfacet
  facet normal 0 0 1
    outer loop
      vertex 0 0 0
      vertex -1 1.22465e-16 0
      vertex -0.998027 -0.0627905 0
    endloop
  endfacet
  facet normal 0 0 1
    outer loop
      vertex 0 0 0
      vertex -0.998027 -0.0627905 0
      vertex -0.992115 -0.125333 0
    endloop
  endfacet
  facet normal 0 0 1
    outer loop
      vertex 0 0 0
      vertex -0.992115 -0.125333 0
      vertex -0.982287 -0.187381 0
    endloop
  endfacet
  facet normal 0 0 1
    outer loop
      vertex 0 0 0
      vertex -0.982287 -0.187381 0
      vertex -0.968583 -0.24869 0
    endloop
  endfacet
  facet normal 0 0 1
    outer loop
      vertex 0 0 0
      vertex -0.968583 -0.24869 0
      vertex -0.951057 -0.309017 0
    endloop
  endfacet
  facet normal 0 0 1
    outer loop
      vertex 0 0 0
      vertex -0.951057 -0.309017 0
      vertex -0.929776 -0.368125 0
    endloop
  endfacet
  facet normal 0 0 1
    outer loop
      vertex 0 0 0
      vertex -0.929776 -0.368125 0
      vertex -0.904827 -0.425779 0
    endloop
  endfacet
  facet normal 0 0 1
    outer loop
      vertex 0 0 0
      vertex -0.904827 -0.425779 0
      vertex -0.876307 -0.481754 0
    endloop
  endfacet
  facet normal 0 0 1
    outer loop
      vertex 0 0 0
      vertex -0.876307 -0.481754 0
      vertex -0.844328 -0.535827 0
    endloop
  endfacet
  facet normal 0 0 1
    outer loop
      vertex 0 0 0
      vertex -0.844328 -0.535827 0
      vertex -0.809017 -0.587785 0
    endloop
  endfacet
  facet normal 0 0 1
    outer loop
      vertex 0 0 0
      vertex -0.809017 -0.587785 0
      vertex -0.770513 -0.637424 0
    endloop
  endfacet
  facet normal 0 0 1
    outer loop
      vertex 0 0 0
      vertex -0.770513 -0.637424 0
      vertex -0.728969 -0.684547 0
    endloop
  endfacet
  facet normal 0 0 1
    outer loop
      vertex 0 0 0
      vertex -0.728969 -0.684547 0
      vertex -0.684547 -0.728969 0
    endloop
  endfacet
  facet normal 0 0 1
    outer loop
      vertex 0 0 0
      vertex -0.684547 -0.728969 0
      vertex -0.637424 -0.770513 0
    endloop
  endfacet
  facet normal 0 0 1
    outer loop
      vertex 0 0 0
      vertex -0.637424 -0.770513 0
      vertex -0.587785 -0.809017 0
    endloop
  endfacet
  facet normal 0 0 1
    outer loop
      vertex 0 0 0
      vertex -0.587785 -0.809017 0
      vertex -0.535827 -0.844328 0
    endloop
  endfacet
  facet normal 0 0 1
    outer loop
      vertex 0 0 0
      vertex -0.535827 -0.844328 0
      vertex -0.481754 -0.876307 0
    endloop
  endfacet
  facet normal 0 0 1
    outer loop
      vertex 0 0 0
      vertex -0.481754 -0.876307 0
      vertex -0.425779 -0.904827 0
    endloop
  endfacet
  facet normal 0 0 1
    outer loop
      vertex 0 0 0
      vertex -0.425779 -0.904827 0
      vertex -0.368125 -0.929776 0
    endloop
  endfacet
  facet normal 0 0 1
    outer loop
      vertex 0 0 0
      vertex -0.368125 -0.929776 0
      vertex -0.309017 -0.951057 0
    endloop
  endfacet
  facet normal 0 0 1
    outer loop
      vertex 0 0 0
      vertex -0.309017 -0.951057 0
      vertex -0.24869 -0.968583 0
    endloop
  endfacet
  facet normal 0 0 1
    outer loop
      vertex 0 0 0
      vertex -0.24869 -0.968583 0
      vertex -0.187381 -0.982287 0
    endloop
  endfacet
  facet normal 0 0 1
    outer loop
      vertex 0 0 0
      vertex -0.187381 -0.982287 0
      vertex -0.125333 -0.992115 0
    endloop
  endfacet
  facet normal 0 0 1
    outer loop
      vertex 0 0 0
      vertex -0.125333 -0.992115 0
      vertex -0.0627905 -0.998027 0
    endloop
  endfacet
  facet normal 0 0 1
    outer loop
      vertex 0 0 0
      vertex -0.0627905 -0.998027 0
      vertex -1.83697e-16 -1 0
    endloop
  endfacet
  facet normal 0 0 1
    outer loop
      vertex 0 0 0
      vertex -1.83697e-16 -1 0
      vertex 0.0627905 -0.998027 0
    endloop
  endfacet
  facet normal 0 0 1
    outer loop
      vertex 0 0 0
      vertex 0.0627905 -0.998027 0
      vertex 0.125333 -0.992115 0
    endloop
  endfacet
  facet normal 0 0 1
    outer loop
      vertex 0 0 0
      vertex 0.125333 -0.992115 0
      vertex 0.187381 -0.982287 0
    endloop
  endfacet
  facet normal 0 0 1
    outer loop
      vertex 0 0 0
      vertex 0.187381 -0.982287 0
      vertex 0.24869 -0.968583 0
    endloop
  endfacet
  facet normal 0 0 1
    outer loop
      vertex 0 0 0
      vertex 0.24869 -0.968583 0
      vertex 0.309017 -0.951057 0
    endloop
  endfacet
  facet normal 0 0 1
    outer loop
      vertex 0 0 0
      vertex 0.309017 -0.951057 0
      vertex 0.368125 -0.929776 0
    endloop
  endfacet
  facet normal 0 0 1
    outer loop
      vertex 0 0 0
      vertex 0.368125 -0.929776 0
      vertex 0.425779 -0.904827 0
    endloop
  endfacet
  facet normal 0 0 1
    outer loop
      vertex 0 0 0
      vertex 0.425779 -0.904827 0
      vertex 0.481754 -0.876307 0
    endloop
  endfacet
  facet normal 0 0 1
    outer loop
      vertex 0 0 0
      vertex 0.481754 -0.876307 0
      vertex 0.535827 -0.844328 0
    endloop
  endfacet
  facet normal 0 0 1
    outer loop
      vertex 0 0 0
      vertex 0.535827 -0.844328 0
      vertex 0.587785 -0.809017 0
    endloop
  endfacet
  facet normal 0 0 1
    outer loop
      vertex 0 0 0
      vertex 0.587785 -0.809017 0
      vertex 0.637424 -0.770513 0
    endloop
  endfacet
  facet normal 0 0 1
    outer loop
      vertex 0 0 0
      vertex 0.637424 -0.770513 0
      vertex 0.684547 -0.728969 0
    endloop
  endfacet
  facet normal 0 0 1
    outer loop
      vertex 0 0 0
      vertex 0.684547 -0.728969 0
      vertex 0.728969 -0.684547 0
    endloop
  endfacet
  facet normal 0 0 1
    outer loop
      vertex 0 0 0
      vertex 0.728969 -0.684547 0
      vertex 0.770513 -0.637424 0
    endloop
  endfacet
  facet normal 0 0 1
    outer loop
      vertex 0 0 0
      vertex 0.770513 -0.637424 0
      vertex 0.809017 -0.587785 0
    endloop
  endfacet
  facet normal 0 0 1
    outer loop
      vertex 0 0 0
      vertex 0.809017 -0.587785 0
      vertex 0.844328 -0.535827 0
    endloop
  endfacet
  facet normal 0 0 1
    outer loop
      vertex 0 0 0
      vertex 0.844328 -0.535827 0
      vertex 0.876307 -0.481754 0
    endloop
  endfacet
  facet normal 0 0 1
    outer loop
      vertex 0 0 0
      vertex 0.876307 -0.481754 0
      vertex 0.904827 -0.425779 0
    endloop
  endfacet
  facet normal 0 0 1
    outer loop
      vertex 0 0 0
      vertex 0.904827 -0.425779 0
      vertex 0.929776 -0.368125 0
    endloop
  endfacet
  facet normal 0 0 1
    outer loop
      vertex 0 0 0
      vertex 0.929776 -0.368125 0
      vertex 0.951057 -0.309017 0
    endloop
  endfacet
  facet normal 0 0 1
    outer loop
      vertex 0 0 0
      vertex 0.951057 -0.309017 0
      vertex 0.968583 -0.24869 0
    endloop
  endfacet
  facet normal 0 0 1
    outer loop
      vertex 0 0 0
      vertex 0.968583 -0.24869 0
      vertex 0.982287 -0.187381 0
    endloop
  endfacet
  facet normal 0 0 1
    outer loop
      vertex 0 0 0
      vertex 0.982287 -0.187381 0
      vertex 0.992115 -0.125333 0
    endloop
  endfacet
  facet normal 0 0 1
    outer loop
      vertex 0 0 0
      vertex 0.992115 -0.125333 0
      vertex 0.998027 -0.0627905 0
    endloop
  endfacet
  facet normal 0 0 1
    outer loop
      vertex 0 0 0
      vertex 0.998027 -0.0627905 0
      vertex 1 -2.44929e-16 0
    endloop
  endfacet
endsolid circle
