solid cylinder
  facet normal 0 0 -1
    outer loop
      vertex 0.998027 0.0627905 0
      vertex 1 0 0
      vertex 0 0 0
    endloop
  endfacet
  facet normal 0 0 -1
    outer loop
      vertex 0.992115 0.125333 0
      vertex 0.998027 0.0627905 0
      vertex 0 0 0
    endloop
  endfacet
  facet normal 0 0 -1
    outer loop
      vertex 0.982287 0.187381 0
      vertex 0.992115 0.125333 0
      vertex 0 0 0
    endloop
  endfacet
  facet normal 0 0 -1
    outer loop
      vertex 0.968583 0.24869 0
      vertex 0.982287 0.187381 0
      vertex 0 0 0
    endloop
  endfacet
  facet normal 0 0 -1
    outer loop
      vertex 0.951057 0.309017 0
      vertex 0.968583 0.24869 0
      vertex 0 0 0
    endloop
  endfacet
  facet normal 0 0 -1
    outer loop
      vertex 0.929776 0.368125 0
      vertex 0.951057 0.309017 0
      vertex 0 0 0
    endloop
  endfacet
  facet normal 0 0 -1
    outer loop
      vertex 0.904827 0.425779 0
      vertex 0.929776 0.368125 0
      vertex 0 0 0
    endloop
  endfacet
  facet normal 0 0 -1
    outer loop
      vertex 0.876307 0.481754 0
      vertex 0.904827 0.425779 0
      vertex 0 0 0
    endloop
  endfacet
  facet normal 0 0 -1
    outer loop
      vertex 0.844328 0.535827 0
      vertex 0.876307 0.481754 0
      vertex 0 0 0
    endloop
  endfacet
  facet normal 0 0 -1
    outer loop
      vertex 0.809017 0.587785 0
      vertex 0.844328 0.535827 0
      vertex 0 0 0
    endloop
  endfacet
  facet normal 0 0 -1
    outer loop
      vertex 0.770513 0.637424 0
      vertex 0.809017 0.587785 0
      vertex 0 0 0
    endloop
  endfacet
  facet normal 0 0 -1
    outer loop
      vertex 0.728969 0.684547 0
      vertex 0.770513 0.637424 0
      vertex 0 0 0
    endloop
  endfacet
  facet normal 0 0 -1
    outer loop
      vertex 0.684547 0.728969 0
      vertex 0.728969 0.684547 0
      vertex 0 0 0
    endloop
  endfacet
  facet normal 0 0 -1
    outer loop
      vertex 0.637424 0.770513 0
      vertex 0.684547 0.728969 0
      vertex 0 0 0
    endloop
  endfacet
  facet normal 0 0 -1
    outer loop
      vertex 0.587785 0.809017 0
      vertex 0.637424 0.770513 0
      vertex 0 0 0
    endloop
  endfacet
  facet normal 0 0 -1
    outer loop
      vertex 0.535827 0.844328 0
      vertex 0.587785 0.809017 0
      vertex 0 0 0
    endloop
  endfacet
  facet normal 0 0 -1
    outer loop
      vertex 0.481754 0.876307 0
      vertex 0.535827 0.844328 0
      vertex 0 0 0
    endloop
  endfacet
  facet normal 0 0 -1
    outer loop
      vertex 0.425779 0.904827 0
      vertex 0.481754 0.876307 0
      vertex 0 0 0
    endloop
  endfacet
  facet normal 0 0 -1
    outer loop
      vertex 0.368125 0.929776 0
      vertex 0.425779 0.904827 0
      vertex 0 0 0
    endloop
  endfacet
  facet normal 0 0 -1
    outer loop
      vertex 0.309017 0.951057 0
      vertex 0.368125 0.929776 0
      vertex 0 0 0
    endloop
  endfacet
  facet normal 0 0 -1
    outer loop
      vertex 0.24869 0.968583 0
      vertex 0.309017 0.951057 0
      vertex 0 0 0
    endloop
  endfacet
  facet normal 0 0 -1
    outer loop
      vertex 0.187381 0.982287 0
      vertex 0.24869 0.968583 0
      vertex 0 0 0
    endloop
  endfacet
  facet normal 0 0 -1
    outer loop
      vertex 0.125333 0.992115 0
      vertex 0.187381 0.982287 0
      vertex 0 0 0
    endloop
  endfacet
  facet normal 0 0 -1
    outer loop
      vertex 0.0627905 0.998027 0
      vertex 0.125333 0.992115 0
      vertex 0 0 0
    endloop
  endfacet
  facet normal 0 0 -1
    outer loop
      vertex 6.12323e-17 1 0
      vertex 0.0627905 0.998027 0
      vertex 0 0 0
    endloop
  endfacet
  facet normal 0 0 -1
    outer loop
      vertex -0.0627905 0.998027 0
      vertex 6.12323e-17 1 0
      vertex 0 0 0
    endloop
  endfacet
  facet normal 0 0 -1
    outer loop
      vertex -0.125333 0.992115 0
      vertex -0.0627905 0.998027 0
      vertex 0 0 0
    endloop
  endfacet
  facet normal 0 0 -1
    outer loop
      vertex -0.187381 0.982287 0
      vertex -0.125333 0.992115 0
      vertex 0 0 0
    endloop
  endfacet
  facet normal 0 0 -1
    outer loop
      vertex -0.24869 0.968583 0
      vertex -0.187381 0.982287 0
      vertex 0 0 0
    endloop
  endfacet
  facet normal 0 0 -1
    outer loop
      vertex -0.309017 0.951057 0
      vertex -0.24869 0.968583 0
      vertex 0 0 0
    endloop
  endfacet
  facet normal 0 0 -1
    outer loop
      vertex -0.368125 0.929776 0
      vertex -0.309017 0.951057 0
      vertex 0 0 0
    endloop
  endfacet
  facet normal 0 0 -1
    outer loop
      vertex -0.425779 0.904827 0
      vertex -0.368125 0.929776 0
      vertex 0 0 0
    endloop
  endfacet
  facet normal 0 0 -1
    outer loop
      vertex -0.481754 0.876307 0
      vertex -0.425779 0.904827 0
      vertex 0 0 0
    endloop
  endfacet
  facet normal 0 0 -1
    outer loop
      vertex -0.535827 0.844328 0
      vertex -0.481754 0.876307 0
      vertex 0 0 0
    endloop
  endfacet
  facet normal 0 0 -1
    outer loop
      vertex -0.587785 0.809017 0
      vertex -0.535827 0.844328 0
      vertex 0 0 0
    endloop
  endfacet
  facet normal 0 0 -1
    outer loop
      vertex -0.637424 0.770513 0
      vertex -0.587785 0.809017 0
      vertex 0 0 0
    endloop
  endfacet
  facet normal 0 0 -1
    outer loop
      vertex -0.684547 0.728969 0
      vertex -0.637424 0.770513 0
      vertex 0 0 0
    endloop
  endfacet
  facet normal 0 0 -1
    outer loop
      vertex -0.728969 0.684547 0
      vertex -0.684547 0.728969 0
      vertex 0 0 0
    endloop
  endfacet
  facet normal 0 0 -1
    outer loop
      vertex -0.770513 0.637424 0
      vertex -0.728969 0.684547 0
      vertex 0 0 0
    endloop
  endfacet
  facet normal 0 0 -1
    outer loop
      vertex -0.809017 0.587785 0
      vertex -0.770513 0.637424 0
      vertex 0 0 0
    endloop
  endfacet
  facet normal 0 0 -1
    outer loop
      vertex -0.844328 0.535827 0
      vertex -0.809017 0.587785 0
      vertex 0 0 0
    endloop
  endfacet
  facet normal 0 0 -1
    outer loop
      vertex -0.876307 0.481754 0
      vertex -0.844328 0.535827 0
      vertex 0 0 0
    endloop
  endfacet
  facet normal 0 0 -1
    outer loop
      vertex -0.904827 0.425779 0
      vertex -0.876307 0.481754 0
      vertex 0 0 0
    endloop
  endfacet
  facet normal 0 0 -1
    outer loop
      vertex -0.929776 0.368125 0
      vertex -0.904827 0.425779 0
      vertex 0 0 0
    endloop
  endfacet
  facet normal 0 0 -1
    outer loop
      vertex -0.951057 0.309017 0
      vertex -0.929776 0.368125 0
      vertex 0 0 0
    endloop
  endfacet
  facet normal 0 0 -1
    outer loop
      vertex -0.968583 0.24869 0
      vertex -0.951057 0.309017 0
      vertex 0 0 0
    endloop
  endfacet
  facet normal 0 0 -1
    outer loop
      vertex -0.982287 0.187381 0
      vertex -0.968583 0.24869 0
      vertex 0 0 0
    endloop
  endfacet
  facet normal 0 0 -1
    outer loop
      vertex -0.992115 0.125333 0
      vertex -0.982287 0.187381 0
      vertex 0 0 0
    endloop
  endfacet
  facet normal 0 0 -1
    outer loop
      vertex -0.998027 0.0627905 0
      vertex -0.992115 0.125333 0
      vertex 0 0 0
    endloop
  endfacet
  facet normal 0 0 -1
    outer loop
      vertex -1 1.22465e-16 0
      vertex -0.998027 0.0627905 0
      vertex 0 0 0
    endloop
  endfacet
  facet normal 0 0 -1
    outer loop
      vertex -0.998027 -0.0627905 0
      vertex -1 1.22465e-16 0
      vertex 0 0 0
    endloop
  endfacet
  facet normal 0 0 -1
    outer loop
      vertex -0.992115 -0.125333 0
      vertex -0.998027 -0.0627905 0
      vertex 0 0 0
    endloop
  endfacet
  facet normal 0 0 -1
    outer loop
      vertex -0.982287 -0.187381 0
      vertex -0.992115 -0.125333 0
      vertex 0 0 0
    endloop
  endfacet
  facet normal 0 0 -1
    outer loop
      vertex -0.968583 -0.24869 0
      vertex -0.982287 -0.187381 0
      vertex 0 0 0
    endloop
  endfacet
  facet normal 0 0 -1
    outer loop
      vertex -0.951057 -0.309017 0
      vertex -0.968583 -0.24869 0
      vertex 0 0 0
    endloop
  endfacet
  facet normal 0 0 -1
    outer loop
      vertex -0.929776 -0.368125 0
      vertex -0.951057 -0.309017 0
      vertex 0 0 0
    endloop
  endfacet
  facet normal 0 0 -1
    outer loop
      vertex -0.904827 -0.425779 0
      vertex -0.929776 -0.368125 0
      vertex 0 0 0
    endloop
  endfacet
  facet normal 0 0 -1
    outer loop
      vertex -0.876307 -0.481754 0
      vertex -0.904827 -0.425779 0
      vertex 0 0 0
    endloop
  endfacet
  facet normal 0 0 -1
    outer loop
      vertex -0.844328 -0.535827 0
      vertex -0.876307 -0.481754 0
      vertex 0 0 0
    endloop
  endfacet
  facet normal 0 0 -1
    outer loop
      vertex -0.809017 -0.587785 0
      vertex -0.844328 -0.535827 0
      vertex 0 0 0
    endloop
  endfacet
  facet normal 0 0 -1
    outer loop
      vertex -0.770513 -0.637424 0
      vertex -0.809017 -0.587785 0
      vertex 0 0 0
    endloop
  endfacet
  facet normal 0 0 -1
    outer loop
      vertex -0.728969 -0.684547 0
      vertex -0.770513 -0.637424 0
      vertex 0 0 0
    endloop
  endfacet
  facet normal 0 0 -1
    outer loop
      vertex -0.684547 -0.728969 0
      vertex -0.728969 -0.684547 0
      vertex 0 0 0
    endloop
  endfacet
  facet normal 0 0 -1
    outer loop
      vertex -0.637424 -0.770513 0
      vertex -0.684547 -0.728969 0
      vertex 0 0 0
    endloop
  endfacet
  facet normal 0 0 -1
    outer loop
      vertex -0.587785 -0.809017 0
      vertex -0.637424 -0.770513 0
      vertex 0 0 0
    endloop
  endfacet
  facet normal 0 0 -1
    outer loop
      vertex -0.535827 -0.844328 0
      vertex -0.587785 -0.809017 0
      vertex 0 0 0
    endloop
  endfacet
  facet normal 0 0 -1
    outer loop
      vertex -0.481754 -0.876307 0
      vertex -0.535827 -0.844328 0
      vertex 0 0 0
    endloop
  endfacet
  facet normal 0 0 -1
    outer loop
      vertex -0.425779 -0.904827 0
      vertex -0.481754 -0.876307 0
      vertex 0 0 0
    endloop
  endfacet
  facet normal 0 0 -1
    outer loop
      vertex -0.368125 -0.929776 0
      vertex -0.425779 -0.904827 0
      vertex 0 0 0
    endloop
  endfacet
  facet normal 0 0 -1
    outer loop
      vertex -0.309017 -0.951057 0
      vertex -0.368125 -0.929776 0
      vertex 0 0 0
    endloop
  endfacet
  facet normal 0 0 -1
    outer loop
      vertex -0.24869 -0.968583 0
      vertex -0.309017 -0.951057 0
      vertex 0 0 0
    endloop
  endfacet
  facet normal 0 0 -1
    outer loop
      vertex -0.187381 -0.982287 0
      vertex -0.24869 -0.968583 0
      vertex 0 0 0
    endloop
  endfacet
  facet normal 0 0 -1
    outer loop
      vertex -0.125333 -0.992115 0
      vertex -0.187381 -0.982287 0
      vertex 0 0 0
    endloop
  endfacet
  facet normal 0 0 -1
    outer loop
      vertex -0.0627905 -0.998027 0
      vertex -0.125333 -0.992115 0
      vertex 0 0 0
    endloop
  endfacet
  facet normal 0 0 -1
    outer loop
      vertex -1.83697e-16 -1 0
      vertex -0.0627905 -0.998027 0
      vertex 0 0 0
    endloop
  endfacet
  facet normal 0 0 -1
    outer loop
      vertex 0.0627905 -0.998027 0
      vertex -1.83697e-16 -1 0
      vertex 0 0 0
    endloop
  endfacet
  facet normal 0 0 -1
    outer loop
      vertex 0.125333 -0.992115 0
      vertex 0.0627905 -0.998027 0
      vertex 0 0 0
    endloop
  endfacet
  facet normal 0 0 -1
    outer loop
      vertex 0.187381 -0.982287 0
      vertex 0.125333 -0.992115 0
      vertex 0 0 0
    endloop
  endfacet
  facet normal 0 0 -1
    outer loop
      vertex 0.24869 -0.968583 0
      vertex 0.187381 -0.982287 0
      vertex 0 0 0
    endloop
  endfacet
  facet normal 0 0 -1
    outer loop
      vertex 0.309017 -0.951057 0
      vertex 0.24869 -0.968583 0
      vertex 0 0 0
    endloop
  endfacet
  facet normal 0 0 -1
    outer loop
      vertex 0.368125 -0.929776 0
      vertex 0.309017 -0.951057 0
      vertex 0 0 0
    endloop
  endfacet
  facet normal 0 0 -1
    outer loop
      vertex 0.425779 -0.904827 0
      vertex 0.368125 -0.929776 0
      vertex 0 0 0
    endloop
  endfacet
  facet normal 0 0 -1
    outer loop
      vertex 0.481754 -0.876307 0
      vertex 0.425779 -0.904827 0
      vertex 0 0 0
    endloop
  endfacet
  facet normal 0 0 -1
    outer loop
      vertex 0.535827 -0.844328 0
      vertex 0.481754 -0.876307 0
      vertex 0 0 0
    endloop
  endfacet
  facet normal 0 0 -1
    outer loop
      vertex 0.587785 -0.809017 0
      vertex 0.535827 -0.844328 0
      vertex 0 0 0
    endloop
  endfacet
  facet normal 0 0 -1
    outer loop
      vertex 0.637424 -0.770513 0
      vertex 0.587785 -0.809017 0
      vertex 0 0 0
    endloop
  endfacet
  facet normal 0 0 -1
    outer loop
      vertex 0.684547 -0.728969 0
      vertex 0.637424 -0.770513 0
      vertex 0 0 0
    endloop
  endfacet
  facet normal 0 0 -1
    outer loop
      vertex 0.728969 -0.684547 0
      vertex 0.684547 -0.728969 0
      vertex 0 0 0
    endloop
  endfacet
  facet normal 0 0 -1
    outer loop
      vertex 0.770513 -0.637424 0
      vertex 0.728969 -0.684547 0
      vertex 0 0 0
    endloop
  endfacet
  facet normal 0 0 -1
    outer loop
      vertex 0.809017 -0.587785 0
      vertex 0.770513 -0.637424 0
      vertex 0 0 0
    endloop
  endfacet
  facet normal 0 0 -1
    outer loop
      vertex 0.844328 -0.535827 0
      vertex 0.809017 -0.587785 0
      vertex 0 0 0
    endloop
  endfacet
  facet normal 0 0 -1
    outer loop
      vertex 0.876307 -0.481754 0
      vertex 0.844328 -0.535827 0
      vertex 0 0 0
    endloop
  endfacet
  facet normal 0 0 -1
    outer loop
      vertex 0.904827 -0.425779 0
      vertex 0.876307 -0.481754 0
      vertex 0 0 0
    endloop
  endfacet
  facet normal 0 0 -1
    outer loop
      vertex 0.929776 -0.368125 0
      vertex 0.904827 -0.425779 0
      vertex 0 0 0
    endloop
  endfacet
  facet normal 0 0 -1
    outer loop
      vertex 0.951057 -0.309017 0
      vertex 0.929776 -0.368125 0
      vertex 0 0 0
    endloop
  endfacet
  facet normal 0 0 -1
    outer loop
      vertex 0.968583 -0.24869 0
      vertex 0.951057 -0.309017 0
      vertex 0 0 0
    endloop
  endfacet
  facet normal 0 0 -1
    outer loop
      vertex 0.982287 -0.187381 0
      vertex 0.968583 -0.24869 0
      vertex 0 0 0
    endloop
  endfacet
  facet normal 0 0 -1
    outer loop
      vertex 0.992115 -0.125333 0
      vertex 0.982287 -0.187381 0
      vertex 0 0 0
    endloop
  endfacet
  facet normal 0 0 -1
    outer loop
      vertex 0.998027 -0.0627905 0
      vertex 0.992115 -0.125333 0
      vertex 0 0 0
    endloop
  endfacet
  facet normal 0 0 -1
    outer loop
      vertex 1 -2.44929e-16 0
      vertex 0.998027 -0.0627905 0
      vertex 0 0 0
    endloop
  endfacet
  facet normal 0.999507 0.0314108 0
    outer loop
      vertex 1 0 0
      vertex 0.998027 0.0627905 0
      vertex 0.998027 0.0627905 5
    endloop
  endfacet
  facet normal 0.999507 0.0314108 -0
    outer loop
      vertex 1 0 0
      vertex 0.998027 0.0627905 5
      vertex 1 0 5
    endloop
  endfacet
  facet normal 0.995562 0.0941083 0
    outer loop
      vertex 0.998027 0.0627905 0
      vertex 0.992115 0.125333 0
      vertex 0.992115 0.125333 5
    endloop
  endfacet
  facet normal 0.995562 0.0941083 -0
    outer loop
      vertex 0.998027 0.0627905 0
      vertex 0.992115 0.125333 5
      vertex 0.998027 0.0627905 5
    endloop
  endfacet
  facet normal 0.987688 0.156434 0
    outer loop
      vertex 0.992115 0.125333 0
      vertex 0.982287 0.187381 0
      vertex 0.982287 0.187381 5
    endloop
  endfacet
  facet normal 0.987688 0.156434 -0
    outer loop
      vertex 0.992115 0.125333 0
      vertex 0.982287 0.187381 5
      vertex 0.992115 0.125333 5
    endloop
  endfacet
  facet normal 0.975917 0.218143 0
    outer loop
      vertex 0.982287 0.187381 0
      vertex 0.968583 0.24869 0
      vertex 0.968583 0.24869 5
    endloop
  endfacet
  facet normal 0.975917 0.218143 -0
    outer loop
      vertex 0.982287 0.187381 0
      vertex 0.968583 0.24869 5
      vertex 0.982287 0.187381 5
    endloop
  endfacet
  facet normal 0.960294 0.278991 0
    outer loop
      vertex 0.968583 0.24869 0
      vertex 0.951057 0.309017 0
      vertex 0.951057 0.309017 5
    endloop
  endfacet
  facet normal 0.960294 0.278991 -0
    outer loop
      vertex 0.968583 0.24869 0
      vertex 0.951057 0.309017 5
      vertex 0.968583 0.24869 5
    endloop
  endfacet
  facet normal 0.940881 0.338738 0
    outer loop
      vertex 0.951057 0.309017 0
      vertex 0.929776 0.368125 0
      vertex 0.929776 0.368125 5
    endloop
  endfacet
  facet normal 0.940881 0.338738 -0
    outer loop
      vertex 0.951057 0.309017 0
      vertex 0.929776 0.368125 5
      vertex 0.951057 0.309017 5
    endloop
  endfacet
  facet normal 0.917755 0.397148 0
    outer loop
      vertex 0.929776 0.368125 0
      vertex 0.904827 0.425779 0
      vertex 0.904827 0.425779 5
    endloop
  endfacet
  facet normal 0.917755 0.397148 -0
    outer loop
      vertex 0.929776 0.368125 0
      vertex 0.904827 0.425779 5
      vertex 0.929776 0.368125 5
    endloop
  endfacet
  facet normal 0.891007 0.45399 0
    outer loop
      vertex 0.904827 0.425779 0
      vertex 0.876307 0.481754 0
      vertex 0.876307 0.481754 5
    endloop
  endfacet
  facet normal 0.891007 0.45399 -0
    outer loop
      vertex 0.904827 0.425779 0
      vertex 0.876307 0.481754 5
      vertex 0.904827 0.425779 5
    endloop
  endfacet
  facet normal 0.860742 0.509041 0
    outer loop
      vertex 0.876307 0.481754 0
      vertex 0.844328 0.535827 0
      vertex 0.844328 0.535827 5
    endloop
  endfacet
  facet normal 0.860742 0.509041 -0
    outer loop
      vertex 0.876307 0.481754 0
      vertex 0.844328 0.535827 5
      vertex 0.876307 0.481754 5
    endloop
  endfacet
  facet normal 0.827081 0.562083 0
    outer loop
      vertex 0.844328 0.535827 0
      vertex 0.809017 0.587785 0
      vertex 0.809017 0.587785 5
    endloop
  endfacet
  facet normal 0.827081 0.562083 -0
    outer loop
      vertex 0.844328 0.535827 0
      vertex 0.809017 0.587785 5
      vertex 0.844328 0.535827 5
    endloop
  endfacet
  facet normal 0.790155 0.612907 0
    outer loop
      vertex 0.809017 0.587785 0
      vertex 0.770513 0.637424 0
      vertex 0.770513 0.637424 5
    endloop
  endfacet
  facet normal 0.790155 0.612907 -0
    outer loop
      vertex 0.809017 0.587785 0
      vertex 0.770513 0.637424 5
      vertex 0.809017 0.587785 5
    endloop
  endfacet
  facet normal 0.750111 0.661312 0
    outer loop
      vertex 0.770513 0.637424 0
      vertex 0.728969 0.684547 0
      vertex 0.728969 0.684547 5
    endloop
  endfacet
  facet normal 0.750111 0.661312 -0
    outer loop
      vertex 0.770513 0.637424 0
      vertex 0.728969 0.684547 5
      vertex 0.770513 0.637424 5
    endloop
  endfacet
  facet normal 0.707107 0.707107 0
    outer loop
      vertex 0.728969 0.684547 0
      vertex 0.684547 0.728969 0
      vertex 0.684547 0.728969 5
    endloop
  endfacet
  facet normal 0.707107 0.707107 -0
    outer loop
      vertex 0.728969 0.684547 0
      vertex 0.684547 0.728969 5
      vertex 0.728969 0.684547 5
    endloop
  endfacet
  facet normal 0.661312 0.750111 0
    outer loop
      vertex 0.684547 0.728969 0
      vertex 0.637424 0.770513 0
      vertex 0.637424 0.770513 5
    endloop
  endfacet
  facet normal 0.661312 0.750111 -0
    outer loop
      vertex 0.684547 0.728969 0
      vertex 0.637424 0.770513 5
      vertex 0.684547 0.728969 5
    endloop
  endfacet
  facet normal 0.612907 0.790155 0
    outer loop
      vertex 0.637424 0.770513 0
      vertex 0.587785 0.809017 0
      vertex 0.587785 0.809017 5
    endloop
  endfacet
  facet normal 0.612907 0.790155 -0
    outer loop
      vertex 0.637424 0.770513 0
      vertex 0.587785 0.809017 5
      vertex 0.637424 0.770513 5
    endloop
  endfacet
  facet normal 0.562083 0.827081 0
    outer loop
      vertex 0.587785 0.809017 0
      vertex 0.535827 0.844328 0
      vertex 0.535827 0.844328 5
    endloop
  endfacet
  facet normal 0.562083 0.827081 -0
    outer loop
      vertex 0.587785 0.809017 0
      vertex 0.535827 0.844328 5
      vertex 0.587785 0.809017 5
    endloop
  endfacet
  facet normal 0.509041 0.860742 0
    outer loop
      vertex 0.535827 0.844328 0
      vertex 0.481754 0.876307 0
      vertex 0.481754 0.876307 5
    endloop
  endfacet
  facet normal 0.509041 0.860742 -0
    outer loop
      vertex 0.535827 0.844328 0
      vertex 0.481754 0.876307 5
      vertex 0.535827 0.844328 5
    endloop
  endfacet
  facet normal 0.45399 0.891007 0
    outer loop
      vertex 0.481754 0.876307 0
      vertex 0.425779 0.904827 0
      vertex 0.425779 0.904827 5
    endloop
  endfacet
  facet normal 0.45399 0.891007 -0
    outer loop
      vertex 0.481754 0.876307 0
      vertex 0.425779 0.904827 5
      vertex 0.481754 0.876307 5
    endloop
  endfacet
  facet normal 0.397148 0.917755 0
    outer loop
      vertex 0.425779 0.904827 0
      vertex 0.368125 0.929776 0
      vertex 0.368125 0.929776 5
    endloop
  endfacet
  facet normal 0.397148 0.917755 -0
    outer loop
      vertex 0.425779 0.904827 0
      vertex 0.368125 0.929776 5
      vertex 0.425779 0.904827 5
    endloop
  endfacet
  facet normal 0.338738 0.940881 0
    outer loop
      vertex 0.368125 0.929776 0
      vertex 0.309017 0.951057 0
      vertex 0.309017 0.951057 5
    endloop
  endfacet
  facet normal 0.338738 0.940881 -0
    outer loop
      vertex 0.368125 0.929776 0
      vertex 0.309017 0.951057 5
      vertex 0.368125 0.929776 5
    endloop
  endfacet
  facet normal 0.278991 0.960294 0
    outer loop
      vertex 0.309017 0.951057 0
      vertex 0.24869 0.968583 0
      vertex 0.24869 0.968583 5
    endloop
  endfacet
  facet normal 0.278991 0.960294 -0
    outer loop
      vertex 0.309017 0.951057 0
      vertex 0.24869 0.968583 5
      vertex 0.309017 0.951057 5
    endloop
  endfacet
  facet normal 0.218143 0.975917 0
    outer loop
      vertex 0.24869 0.968583 0
      vertex 0.187381 0.982287 0
      vertex 0.187381 0.982287 5
    endloop
  endfacet
  facet normal 0.218143 0.975917 -0
    outer loop
      vertex 0.24869 0.968583 0
      vertex 0.187381 0.982287 5
      vertex 0.24869 0.968583 5
    endloop
  endfacet
  facet normal 0.156434 0.987688 0
    outer loop
      vertex 0.187381 0.982287 0
      vertex 0.125333 0.992115 0
      vertex 0.125333 0.992115 5
    endloop
  endfacet
  facet normal 0.156434 0.987688 -0
    outer loop
      vertex 0.187381 0.982287 0
      vertex 0.125333 0.992115 5
      vertex 0.187381 0.982287 5
    endloop
  endfacet
  facet normal 0.0941083 0.995562 0
    outer loop
      vertex 0.125333 0.992115 0
      vertex 0.0627905 0.998027 0
      vertex 0.0627905 0.998027 5
    endloop
  endfacet
  facet normal 0.0941083 0.995562 -0
    outer loop
      vertex 0.125333 0.992115 0
      vertex 0.0627905 0.998027 5
      vertex 0.125333 0.992115 5
    endloop
  endfacet
  facet normal 0.0314108 0.999507 0
    outer loop
      vertex 0.0627905 0.998027 0
      vertex 6.12323e-17 1 0
      vertex 6.12323e-17 1 5
    endloop
  endfacet
  facet normal 0.0314108 0.999507 -0
    outer loop
      vertex 0.0627905 0.998027 0
      vertex 6.12323e-17 1 5
      vertex 0.0627905 0.998027 5
    endloop
  endfacet
  facet normal -0.0314108 0.999507 0
    outer loop
      vertex 6.12323e-17 1 0
      vertex -0.0627905 0.998027 0
      vertex -0.0627905 0.998027 5
    endloop
  endfacet
  facet normal -0.0314108 0.999507 0
    outer loop
      vertex 6.12323e-17 1 0
      vertex -0.0627905 0.998027 5
      vertex 6.12323e-17 1 5
    endloop
  endfacet
  facet normal -0.0941083 0.995562 0
    outer loop
      vertex -0.0627905 0.998027 0
      vertex -0.125333 0.992115 0
      vertex -0.125333 0.992115 5
    endloop
  endfacet
  facet normal -0.0941083 0.995562 0
    outer loop
      vertex -0.0627905 0.998027 0
      vertex -0.125333 0.992115 5
      vertex -0.0627905 0.998027 5
    endloop
  endfacet
  facet normal -0.156434 0.987688 0
    outer loop
      vertex -0.125333 0.992115 0
      vertex -0.187381 0.982287 0
      vertex -0.187381 0.982287 5
    endloop
  endfacet
  facet normal -0.156434 0.987688 0
    outer loop
      vertex -0.125333 0.992115 0
      vertex -0.187381 0.982287 5
      vertex -0.125333 0.992115 5
    endloop
  endfacet
  facet normal -0.218143 0.975917 0
    outer loop
      vertex -0.187381 0.982287 0
      vertex -0.24869 0.968583 0
      vertex -0.24869 0.968583 5
    endloop
  endfacet
  facet normal -0.218143 0.975917 0
    outer loop
      vertex -0.187381 0.982287 0
      vertex -0.24869 0.968583 5
      vertex -0.187381 0.982287 5
    endloop
  endfacet
  facet normal -0.278991 0.960294 0
    outer loop
      vertex -0.24869 0.968583 0
      vertex -0.309017 0.951057 0
      vertex -0.309017 0.951057 5
    endloop
  endfacet
  facet normal -0.278991 0.960294 0
    outer loop
      vertex -0.24869 0.968583 0
      vertex -0.309017 0.951057 5
      vertex -0.24869 0.968583 5
    endloop
  endfacet
  facet normal -0.338738 0.940881 0
    outer loop
      vertex -0.309017 0.951057 0
      vertex -0.368125 0.929776 0
      vertex -0.368125 0.929776 5
    endloop
  endfacet
  facet normal -0.338738 0.940881 0
    outer loop
      vertex -0.309017 0.951057 0
      vertex -0.368125 0.929776 5
      vertex -0.309017 0.951057 5
    endloop
  endfacet
  facet normal -0.397148 0.917755 0
    outer loop
      vertex -0.368125 0.929776 0
      vertex -0.425779 0.904827 0
      vertex -0.425779 0.904827 5
    endloop
  endfacet
  facet normal -0.397148 0.917755 0
    outer loop
      vertex -0.368125 0.929776 0
      vertex -0.425779 0.904827 5
      vertex -0.368125 0.929776 5
    endloop
  endfacet
  facet normal -0.45399 0.891007 0
    outer loop
      vertex -0.425779 0.904827 0
      vertex -0.481754 0.876307 0
      vertex -0.481754 0.876307 5
    endloop
  endfacet
  facet normal -0.45399 0.891007 0
    outer loop
      vertex -0.425779 0.904827 0
      vertex -0.481754 0.876307 5
      vertex -0.425779 0.904827 5
    endloop
  endfacet
  facet normal -0.509041 0.860742 0
    outer loop
      vertex -0.481754 0.876307 0
      vertex -0.535827 0.844328 0
      vertex -0.535827 0.844328 5
    endloop
  endfacet
  facet normal -0.509041 0.860742 0
    outer loop
      vertex -0.481754 0.876307 0
      vertex -0.535827 0.844328 5
      vertex -0.481754 0.876307 5
    endloop
  endfacet
  facet normal -0.562083 0.827081 0
    outer loop
      vertex -0.535827 0.844328 0
      vertex -0.587785 0.809017 0
      vertex -0.587785 0.809017 5
    endloop
  endfacet
  facet normal -0.562083 0.827081 0
    outer loop
      vertex -0.535827 0.844328 0
      vertex -0.587785 0.809017 5
      vertex -0.535827 0.844328 5
    endloop
  endfacet
  facet normal -0.612907 0.790155 0
    outer loop
      vertex -0.587785 0.809017 0
      vertex -0.637424 0.770513 0
      vertex -0.637424 0.770513 5
    endloop
  endfacet
  facet normal -0.612907 0.790155 0
    outer loop
      vertex -0.587785 0.809017 0
      vertex -0.637424 0.770513 5
      vertex -0.587785 0.809017 5
    endloop
  endfacet
  facet normal -0.661312 0.750111 0
    outer loop
      vertex -0.637424 0.770513 0
      vertex -0.684547 0.728969 0
      vertex -0.684547 0.728969 5
    endloop
  endfacet
  facet normal -0.661312 0.750111 0
    outer loop
      vertex -0.637424 0.770513 0
      vertex -0.684547 0.728969 5
      vertex -0.637424 0.770513 5
    endloop
  endfacet
  facet normal -0.707107 0.707107 0
    outer loop
      vertex -0.684547 0.728969 0
      vertex -0.728969 0.684547 0
      vertex -0.728969 0.684547 5
    endloop
  endfacet
  facet normal -0.707107 0.707107 0
    outer loop
      vertex -0.684547 0.728969 0
      vertex -0.728969 0.684547 5
      vertex -0.684547 0.728969 5
    endloop
  endfacet
  facet normal -0.750111 0.661312 0
    outer loop
      vertex -0.728969 0.684547 0
      vertex -0.770513 0.637424 0
      vertex -0.770513 0.637424 5
    endloop
  endfacet
  facet normal -0.750111 0.661312 0
    outer loop
      vertex -0.728969 0.684547 0
      vertex -0.770513 0.637424 5
      vertex -0.728969 0.684547 5
    endloop
  endfacet
  facet normal -0.790155 0.612907 0
    outer loop
      vertex -0.770513 0.637424 0
      vertex -0.809017 0.587785 0
      vertex -0.809017 0.587785 5
    endloop
  endfacet
  facet normal -0.790155 0.612907 0
    outer loop
      vertex -0.770513 0.637424 0
      vertex -0.809017 0.587785 5
      vertex -0.770513 0.637424 5
    endloop
  endfacet
  facet normal -0.827081 0.562083 0
    outer loop
      vertex -0.809017 0.587785 0
      vertex -0.844328 0.535827 0
      vertex -0.844328 0.535827 5
    endloop
  endfacet
  facet normal -0.827081 0.562083 0
    outer loop
      vertex -0.809017 0.587785 0
      vertex -0.844328 0.535827 5
      vertex -0.809017 0.587785 5
    endloop
  endfacet
  facet normal -0.860742 0.509041 0
    outer loop
      vertex -0.844328 0.535827 0
      vertex -0.876307 0.481754 0
      vertex -0.876307 0.481754 5
    endloop
  endfacet
  facet normal -0.860742 0.509041 0
    outer loop
      vertex -0.844328 0.535827 0
      vertex -0.876307 0.481754 5
      vertex -0.844328 0.535827 5
    endloop
  endfacet
  facet normal -0.891007 0.45399 0
    outer loop
      vertex -0.876307 0.481754 0
      vertex -0.904827 0.425779 0
      vertex -0.904827 0.425779 5
    endloop
  endfacet
  facet normal -0.891007 0.45399 0
    outer loop
      vertex -0.876307 0.481754 0
      vertex -0.904827 0.425779 5
      vertex -0.876307 0.481754 5
    endloop
  endfacet
  facet normal -0.917755 0.397148 0
    outer loop
      vertex -0.904827 0.425779 0
      vertex -0.929776 0.368125 0
      vertex -0.929776 0.368125 5
    endloop
  endfacet
  facet normal -0.917755 0.397148 0
    outer loop
      vertex -0.904827 0.425779 0
      vertex -0.929776 0.368125 5
      vertex -0.904827 0.425779 5
    endloop
  endfacet
  facet normal -0.940881 0.338738 0
    outer loop
      vertex -0.929776 0.368125 0
      vertex -0.951057 0.309017 0
      vertex -0.951057 0.309017 5
    endloop
  endfacet
  facet normal -0.940881 0.338738 0
    outer loop
      vertex -0.929776 0.368125 0
      vertex -0.951057 0.309017 5
      vertex -0.929776 0.368125 5
    endloop
  endfacet
  facet normal -0.960294 0.278991 0
    outer loop
      vertex -0.951057 0.309017 0
      vertex -0.968583 0.24869 0
      vertex -0.968583 0.24869 5
    endloop
  endfacet
  facet normal -0.960294 0.278991 0
    outer loop
      vertex -0.951057 0.309017 0
      vertex -0.968583 0.24869 5
      vertex -0.951057 0.309017 5
    endloop
  endfacet
  facet normal -0.975917 0.218143 0
    outer loop
      vertex -0.968583 0.24869 0
      vertex -0.982287 0.187381 0
      vertex -0.982287 0.187381 5
    endloop
  endfacet
  facet normal -0.975917 0.218143 0
    outer loop
      vertex -0.968583 0.24869 0
      vertex -0.982287 0.187381 5
      vertex -0.968583 0.24869 5
    endloop
  endfacet
  facet normal -0.987688 0.156434 0
    outer loop
      vertex -0.982287 0.187381 0
      vertex -0.992115 0.125333 0
      vertex -0.992115 0.125333 5
    endloop
  endfacet
  facet normal -0.987688 0.156434 0
    outer loop
      vertex -0.982287 0.187381 0
      vertex -0.992115 0.125333 5
      vertex -0.982287 0.187381 5
    endloop
  endfacet
  facet normal -0.995562 0.0941083 0
    outer loop
      vertex -0.992115 0.125333 0
      vertex -0.998027 0.0627905 0
      vertex -0.998027 0.0627905 5
    endloop
  endfacet
  facet normal -0.995562 0.0941083 0
    outer loop
      vertex -0.992115 0.125333 0
      vertex -0.998027 0.0627905 5
      vertex -0.992115 0.125333 5
    endloop
  endfacet
  facet normal -0.999507 0.0314108 0
    outer loop
      vertex -0.998027 0.0627905 0
      vertex -1 1.22465e-16 0
      vertex -1 1.22465e-16 5
    endloop
  endfacet
  facet normal -0.999507 0.0314108 0
    outer loop
      vertex -0.998027 0.0627905 0
      vertex -1 1.22465e-16 5
      vertex -0.998027 0.0627905 5
    endloop
  endfacet
  facet normal -0.999507 -0.0314108 0
    outer loop
      vertex -1 1.22465e-16 0
      vertex -0.998027 -0.0627905 0
      vertex -0.998027 -0.0627905 5
    endloop
  endfacet
  facet normal -0.999507 -0.0314108 0
    outer loop
      vertex -1 1.22465e-16 0
      vertex -0.998027 -0.0627905 5
      vertex -1 1.22465e-16 5
    endloop
  endfacet
  facet normal -0.995562 -0.0941083 0
    outer loop
      vertex -0.998027 -0.0627905 0
      vertex -0.992115 -0.125333 0
      vertex -0.992115 -0.125333 5
    endloop
  endfacet
  facet normal -0.995562 -0.0941083 0
    outer loop
      vertex -0.998027 -0.0627905 0
      vertex -0.992115 -0.125333 5
      vertex -0.998027 -0.0627905 5
    endloop
  endfacet
  facet normal -0.987688 -0.156434 0
    outer loop
      vertex -0.992115 -0.125333 0
      vertex -0.982287 -0.187381 0
      vertex -0.982287 -0.187381 5
    endloop
  endfacet
  facet normal -0.987688 -0.156434 0
    outer loop
      vertex -0.992115 -0.125333 0
      vertex -0.982287 -0.187381 5
      vertex -0.992115 -0.125333 5
    endloop
  endfacet
  facet normal -0.975917 -0.218143 0
    outer loop
      vertex -0.982287 -0.187381 0
      vertex -0.968583 -0.24869 0
      vertex -0.968583 -0.24869 5
    endloop
  endfacet
  facet normal -0.975917 -0.218143 0
    outer loop
      vertex -0.982287 -0.187381 0
      vertex -0.968583 -0.24869 5
      vertex -0.982287 -0.187381 5
    endloop
  endfacet
  facet normal -0.960294 -0.278991 0
    outer loop
      vertex -0.968583 -0.24869 0
      vertex -0.951057 -0.309017 0
      vertex -0.951057 -0.309017 5
    endloop
  endfacet
  facet normal -0.960294 -0.278991 0
    outer loop
      vertex -0.968583 -0.24869 0
      vertex -0.951057 -0.309017 5
      vertex -0.968583 -0.24869 5
    endloop
  endfacet
  facet normal -0.940881 -0.338738 0
    outer loop
      vertex -0.951057 -0.309017 0
      vertex -0.929776 -0.368125 0
      vertex -0.929776 -0.368125 5
    endloop
  endfacet
  facet normal -0.940881 -0.338738 0
    outer loop
      vertex -0.951057 -0.309017 0
      vertex -0.929776 -0.368125 5
      vertex -0.951057 -0.309017 5
    endloop
  endfacet
  facet normal -0.917755 -0.397148 0
    outer loop
      vertex -0.929776 -0.368125 0
      vertex -0.904827 -0.425779 0
      vertex -0.904827 -0.425779 5
    endloop
  endfacet
  facet normal -0.917755 -0.397148 0
    outer loop
      vertex -0.929776 -0.368125 0
      vertex -0.904827 -0.425779 5
      vertex -0.929776 -0.368125 5
    endloop
  endfacet
  facet normal -0.891007 -0.45399 0
    outer loop
      vertex -0.904827 -0.425779 0
      vertex -0.876307 -0.481754 0
      vertex -0.876307 -0.481754 5
    endloop
  endfacet
  facet normal -0.891007 -0.45399 0
    outer loop
      vertex -0.904827 -0.425779 0
      vertex -0.876307 -0.481754 5
      vertex -0.904827 -0.425779 5
    endloop
  endfacet
  facet normal -0.860742 -0.509041 0
    outer loop
      vertex -0.876307 -0.481754 0
      vertex -0.844328 -0.535827 0
      vertex -0.844328 -0.535827 5
    endloop
  endfacet
  facet normal -0.860742 -0.509041 0
    outer loop
      vertex -0.876307 -0.481754 0
      vertex -0.844328 -0.535827 5
      vertex -0.876307 -0.481754 5
    endloop
  endfacet
  facet normal -0.827081 -0.562083 0
    outer loop
      vertex -0.844328 -0.535827 0
      vertex -0.809017 -0.587785 0
      vertex -0.809017 -0.587785 5
    endloop
  endfacet
  facet normal -0.827081 -0.562083 0
    outer loop
      vertex -0.844328 -0.535827 0
      vertex -0.809017 -0.587785 5
      vertex -0.844328 -0.535827 5
    endloop
  endfacet
  facet normal -0.790155 -0.612907 0
    outer loop
      vertex -0.809017 -0.587785 0
      vertex -0.770513 -0.637424 0
      vertex -0.770513 -0.637424 5
    endloop
  endfacet
  facet normal -0.790155 -0.612907 0
    outer loop
      vertex -0.809017 -0.587785 0
      vertex -0.770513 -0.637424 5
      vertex -0.809017 -0.587785 5
    endloop
  endfacet
  facet normal -0.750111 -0.661312 0
    outer loop
      vertex -0.770513 -0.637424 0
      vertex -0.728969 -0.684547 0
      vertex -0.728969 -0.684547 5
    endloop
  endfacet
  facet normal -0.750111 -0.661312 0
    outer loop
      vertex -0.770513 -0.637424 0
      vertex -0.728969 -0.684547 5
      vertex -0.770513 -0.637424 5
    endloop
  endfacet
  facet normal -0.707107 -0.707107 0
    outer loop
      vertex -0.728969 -0.684547 0
      vertex -0.684547 -0.728969 0
      vertex -0.684547 -0.728969 5
    endloop
  endfacet
  facet normal -0.707107 -0.707107 0
    outer loop
      vertex -0.728969 -0.684547 0
      vertex -0.684547 -0.728969 5
      vertex -0.728969 -0.684547 5
    endloop
  endfacet
  facet normal -0.661312 -0.750111 0
    outer loop
      vertex -0.684547 -0.728969 0
      vertex -0.637424 -0.770513 0
      vertex -0.637424 -0.770513 5
    endloop
  endfacet
  facet normal -0.661312 -0.750111 0
    outer loop
      vertex -0.684547 -0.728969 0
      vertex -0.637424 -0.770513 5
      vertex -0.684547 -0.728969 5
    endloop
  endfacet
  facet normal -0.612907 -0.790155 0
    outer loop
      vertex -0.637424 -0.770513 0
      vertex -0.587785 -0.809017 0
      vertex -0.587785 -0.809017 5
    endloop
  endfacet
  facet normal -0.612907 -0.790155 0
    outer loop
      vertex -0.637424 -0.770513 0
      vertex -0.587785 -0.809017 5
      vertex -0.637424 -0.770513 5
    endloop
  endfacet
  facet normal -0.562083 -0.827081 0
    outer loop
      vertex -0.587785 -0.809017 0
      vertex -0.535827 -0.844328 0
      vertex -0.535827 -0.844328 5
    endloop
  endfacet
  facet normal -0.562083 -0.827081 0
    outer loop
      vertex -0.587785 -0.809017 0
      vertex -0.535827 -0.844328 5
      vertex -0.587785 -0.809017 5
    endloop
  endfacet
  facet normal -0.509041 -0.860742 0
    outer loop
      vertex -0.535827 -0.844328 0
      vertex -0.481754 -0.876307 0
      vertex -0.481754 -0.876307 5
    endloop
  endfacet
  facet normal -0.509041 -0.860742 0
    outer loop
      vertex -0.535827 -0.844328 0
      vertex -0.481754 -0.876307 5
      vertex -0.535827 -0.844328 5
    endloop
  endfacet
  facet normal -0.45399 -0.891007 0
    outer loop
      vertex -0.481754 -0.876307 0
      vertex -0.425779 -0.904827 0
      vertex -0.425779 -0.904827 5
    endloop
  endfacet
  facet normal -0.45399 -0.891007 0
    outer loop
      vertex -0.481754 -0.876307 0
      vertex -0.425779 -0.904827 5
      vertex -0.481754 -0.876307 5
    endloop
  endfacet
  facet normal -0.397148 -0.917755 0
    outer loop
      vertex -0.425779 -0.904827 0
      vertex -0.368125 -0.929776 0
      vertex -0.368125 -0.929776 5
    endloop
  endfacet
  facet normal -0.397148 -0.917755 0
    outer loop
      vertex -0.425779 -0.904827 0
      vertex -0.368125 -0.929776 5
      vertex -0.425779 -0.904827 5
    endloop
  endfacet
  facet normal -0.338738 -0.940881 0
    outer loop
      vertex -0.368125 -0.929776 0
      vertex -0.309017 -0.951057 0
      vertex -0.309017 -0.951057 5
    endloop
  endfacet
  facet normal -0.338738 -0.940881 0
    outer loop
      vertex -0.368125 -0.929776 0
      vertex -0.309017 -0.951057 5
      vertex -0.368125 -0.929776 5
    endloop
  endfacet
  facet normal -0.278991 -0.960294 0
    outer loop
      vertex -0.309017 -0.951057 0
      vertex -0.24869 -0.968583 0
      vertex -0.24869 -0.968583 5
    endloop
  endfacet
  facet normal -0.278991 -0.960294 0
    outer loop
      vertex -0.309017 -0.951057 0
      vertex -0.24869 -0.968583 5
      vertex -0.309017 -0.951057 5
    endloop
  endfacet
  facet normal -0.218143 -0.975917 0
    outer loop
      vertex -0.24869 -0.968583 0
      vertex -0.187381 -0.982287 0
      vertex -0.187381 -0.982287 5
    endloop
  endfacet
  facet normal -0.218143 -0.975917 0
    outer loop
      vertex -0.24869 -0.968583 0
      vertex -0.187381 -0.982287 5
      vertex -0.24869 -0.968583 5
    endloop
  endfacet
  facet normal -0.156434 -0.987688 0
    outer loop
      vertex -0.187381 -0.982287 0
      vertex -0.125333 -0.992115 0
      vertex -0.125333 -0.992115 5
    endloop
  endfacet
  facet normal -0.156434 -0.987688 0
    outer loop
      vertex -0.187381 -0.982287 0
      vertex -0.125333 -0.992115 5
      vertex -0.187381 -0.982287 5
    endloop
  endfacet
  facet normal -0.0941083 -0.995562 0
    outer loop
      vertex -0.125333 -0.992115 0
      vertex -0.0627905 -0.998027 0
      vertex -0.0627905 -0.998027 5
    endloop
  endfacet
  facet normal -0.0941083 -0.995562 0
    outer loop
      vertex -0.125333 -0.992115 0
      vertex -0.0627905 -0.998027 5
      vertex -0.125333 -0.992115 5
    endloop
  endfacet
  facet normal -0.0314108 -0.999507 0
    outer loop
      vertex -0.0627905 -0.998027 0
      vertex -1.83697e-16 -1 0
      vertex -1.83697e-16 -1 5
    endloop
  endfacet
  facet normal -0.0314108 -0.999507 0
    outer loop
      vertex -0.0627905 -0.998027 0
      vertex -1.83697e-16 -1 5
      vertex -0.0627905 -0.998027 5
    endloop
  endfacet
  facet normal 0.0314108 -0.999507 0
    outer loop
      vertex -1.83697e-16 -1 0
      vertex 0.0627905 -0.998027 0
      vertex 0.0627905 -0.998027 5
    endloop
  endfacet
  facet normal 0.0314108 -0.999507 0
    outer loop
      vertex -1.83697e-16 -1 0
      vertex 0.0627905 -0.998027 5
      vertex -1.83697e-16 -1 5
    endloop
  endfacet
  facet normal 0.0941083 -0.995562 0
    outer loop
      vertex 0.0627905 -0.998027 0
      vertex 0.125333 -0.992115 0
      vertex 0.125333 -0.992115 5
    endloop
  endfacet
  facet normal 0.0941083 -0.995562 0
    outer loop
      vertex 0.0627905 -0.998027 0
      vertex 0.125333 -0.992115 5
      vertex 0.0627905 -0.998027 5
    endloop
  endfacet
  facet normal 0.156434 -0.987688 0
    outer loop
      vertex 0.125333 -0.992115 0
      vertex 0.187381 -0.982287 0
      vertex 0.187381 -0.982287 5
    endloop
  endfacet
  facet normal 0.156434 -0.987688 0
    outer loop
      vertex 0.125333 -0.992115 0
      vertex 0.187381 -0.982287 5
      vertex 0.125333 -0.992115 5
    endloop
  endfacet
  facet normal 0.218143 -0.975917 0
    outer loop
      vertex 0.187381 -0.982287 0
      vertex 0.24869 -0.968583 0
      vertex 0.24869 -0.968583 5
    endloop
  endfacet
  facet normal 0.218143 -0.975917 0
    outer loop
      vertex 0.187381 -0.982287 0
      vertex 0.24869 -0.968583 5
      vertex 0.187381 -0.982287 5
    endloop
  endfacet
  facet normal 0.278991 -0.960294 0
    outer loop
      vertex 0.24869 -0.968583 0
      vertex 0.309017 -0.951057 0
      vertex 0.309017 -0.951057 5
    endloop
  endfacet
  facet normal 0.278991 -0.960294 0
    outer loop
      vertex 0.24869 -0.968583 0
      vertex 0.309017 -0.951057 5
      vertex 0.24869 -0.968583 5
    endloop
  endfacet
  facet normal 0.338738 -0.940881 0
    outer loop
      vertex 0.309017 -0.951057 0
      vertex 0.368125 -0.929776 0
      vertex 0.368125 -0.929776 5
    endloop
  endfacet
  facet normal 0.338738 -0.940881 0
    outer loop
      vertex 0.309017 -0.951057 0
      vertex 0.368125 -0.929776 5
      vertex 0.309017 -0.951057 5
    endloop
  endfacet
  facet normal 0.397148 -0.917755 0
    outer loop
      vertex 0.368125 -0.929776 0
      vertex 0.425779 -0.904827 0
      vertex 0.425779 -0.904827 5
    endloop
  endfacet
  facet normal 0.397148 -0.917755 0
    outer loop
      vertex 0.368125 -0.929776 0
      vertex 0.425779 -0.904827 5
      vertex 0.368125 -0.929776 5
    endloop
  endfacet
  facet normal 0.45399 -0.891007 0
    outer loop
      vertex 0.425779 -0.904827 0
      vertex 0.481754 -0.876307 0
      vertex 0.481754 -0.876307 5
    endloop
  endfacet
  facet normal 0.45399 -0.891007 0
    outer loop
      vertex 0.425779 -0.904827 0
      vertex 0.481754 -0.876307 5
      vertex 0.425779 -0.904827 5
    endloop
  endfacet
  facet normal 0.509041 -0.860742 0
    outer loop
      vertex 0.481754 -0.876307 0
      vertex 0.535827 -0.844328 0
      vertex 0.535827 -0.844328 5
    endloop
  endfacet
  facet normal 0.509041 -0.860742 0
    outer loop
      vertex 0.481754 -0.876307 0
      vertex 0.535827 -0.844328 5
      vertex 0.481754 -0.876307 5
    endloop
  endfacet
  facet normal 0.562083 -0.827081 0
    outer loop
      vertex 0.535827 -0.844328 0
      vertex 0.587785 -0.809017 0
      vertex 0.587785 -0.809017 5
    endloop
  endfacet
  facet normal 0.562083 -0.827081 0
    outer loop
      vertex 0.535827 -0.844328 0
      vertex 0.587785 -0.809017 5
      vertex 0.535827 -0.844328 5
    endloop
  endfacet
  facet normal 0.612907 -0.790155 0
    outer loop
      vertex 0.587785 -0.809017 0
      vertex 0.637424 -0.770513 0
      vertex 0.637424 -0.770513 5
    endloop
  endfacet
  facet normal 0.612907 -0.790155 0
    outer loop
      vertex 0.587785 -0.809017 0
      vertex 0.637424 -0.770513 5
      vertex 0.587785 -0.809017 5
    endloop
  endfacet
  facet normal 0.661312 -0.750111 0
    outer loop
      vertex 0.637424 -0.770513 0
      vertex 0.684547 -0.728969 0
      vertex 0.684547 -0.728969 5
    endloop
  endfacet
  facet normal 0.661312 -0.750111 0
    outer loop
      vertex 0.637424 -0.770513 0
      vertex 0.684547 -0.728969 5
      vertex 0.637424 -0.770513 5
    endloop
  endfacet
  facet normal 0.707107 -0.707107 0
    outer loop
      vertex 0.684547 -0.728969 0
      vertex 0.728969 -0.684547 0
      vertex 0.728969 -0.684547 5
    endloop
  endfacet
  facet normal 0.707107 -0.707107 0
    outer loop
      vertex 0.684547 -0.728969 0
      vertex 0.728969 -0.684547 5
      vertex 0.684547 -0.728969 5
    endloop
  endfacet
  facet normal 0.750111 -0.661312 0
    outer loop
      vertex 0.728969 -0.684547 0
      vertex 0.770513 -0.637424 0
      vertex 0.770513 -0.637424 5
    endloop
  endfacet
  facet normal 0.750111 -0.661312 0
    outer loop
      vertex 0.728969 -0.684547 0
      vertex 0.770513 -0.637424 5
      vertex 0.728969 -0.684547 5
    endloop
  endfacet
  facet normal 0.790155 -0.612907 0
    outer loop
      vertex 0.770513 -0.637424 0
      vertex 0.809017 -0.587785 0
      vertex 0.809017 -0.587785 5
    endloop
  endfacet
  facet normal 0.790155 -0.612907 0
    outer loop
      vertex 0.770513 -0.637424 0
      vertex 0.809017 -0.587785 5
      vertex 0.770513 -0.637424 5
    endloop
  endfacet
  facet normal 0.827081 -0.562083 0
    outer loop
      vertex 0.809017 -0.587785 0
      vertex 0.844328 -0.535827 0
      vertex 0.844328 -0.535827 5
    endloop
  endfacet
  facet normal 0.827081 -0.562083 0
    outer loop
      vertex 0.809017 -0.587785 0
      vertex 0.844328 -0.535827 5
      vertex 0.809017 -0.587785 5
    endloop
  endfacet
  facet normal 0.860742 -0.509041 0
    outer loop
      vertex 0.844328 -0.535827 0
      vertex 0.876307 -0.481754 0
      vertex 0.876307 -0.481754 5
    endloop
  endfacet
  facet normal 0.860742 -0.509041 0
    outer loop
      vertex 0.844328 -0.535827 0
      vertex 0.876307 -0.481754 5
      vertex 0.844328 -0.535827 5
    endloop
  endfacet
  facet normal 0.891007 -0.45399 0
    outer loop
      vertex 0.876307 -0.481754 0
      vertex 0.904827 -0.425779 0
      vertex 0.904827 -0.425779 5
    endloop
  endfacet
  facet normal 0.891007 -0.45399 0
    outer loop
      vertex 0.876307 -0.481754 0
      vertex 0.904827 -0.425779 5
      vertex 0.876307 -0.481754 5
    endloop
  endfacet
  facet normal 0.917755 -0.397148 0
    outer loop
      vertex 0.904827 -0.425779 0
      vertex 0.929776 -0.368125 0
      vertex 0.929776 -0.368125 5
    endloop
  endfacet
  facet normal 0.917755 -0.397148 0
    outer loop
      vertex 0.904827 -0.425779 0
      vertex 0.929776 -0.368125 5
      vertex 0.904827 -0.425779 5
    endloop
  endfacet
  facet normal 0.940881 -0.338738 0
    outer loop
      vertex 0.929776 -0.368125 0
      vertex 0.951057 -0.309017 0
      vertex 0.951057 -0.309017 5
    endloop
  endfacet
  facet normal 0.940881 -0.338738 0
    outer loop
      vertex 0.929776 -0.368125 0
      vertex 0.951057 -0.309017 5
      vertex 0.929776 -0.368125 5
    endloop
  endfacet
  facet normal 0.960294 -0.278991 0
    outer loop
      vertex 0.951057 -0.309017 0
      vertex 0.968583 -0.24869 0
      vertex 0.968583 -0.24869 5
    endloop
  endfacet
  facet normal 0.960294 -0.278991 0
    outer loop
      vertex 0.951057 -0.309017 0
      vertex 0.968583 -0.24869 5
      vertex 0.951057 -0.309017 5
    endloop
  endfacet
  facet normal 0.975917 -0.218143 0
    outer loop
      vertex 0.968583 -0.24869 0
      vertex 0.982287 -0.187381 0
      vertex 0.982287 -0.187381 5
    endloop
  endfacet
  facet normal 0.975917 -0.218143 0
    outer loop
      vertex 0.968583 -0.24869 0
      vertex 0.982287 -0.187381 5
      vertex 0.968583 -0.24869 5
    endloop
  endfacet
  facet normal 0.987688 -0.156434 0
    outer loop
      vertex 0.982287 -0.187381 0
      vertex 0.992115 -0.125333 0
      vertex 0.992115 -0.125333 5
    endloop
  endfacet
  facet normal 0.987688 -0.156434 0
    outer loop
      vertex 0.982287 -0.187381 0
      vertex 0.992115 -0.125333 5
      vertex 0.982287 -0.187381 5
    endloop
  endfacet
  facet normal 0.995562 -0.0941083 0
    outer loop
      vertex 0.992115 -0.125333 0
      vertex 0.998027 -0.0627905 0
      vertex 0.998027 -0.0627905 5
    endloop
  endfacet
  facet normal 0.995562 -0.0941083 0
    outer loop
      vertex 0.992115 -0.125333 0
      vertex 0.998027 -0.0627905 5
      vertex 0.992115 -0.125333 5
    endloop
  endfacet
  facet normal 0.999507 -0.0314108 0
    outer loop
      vertex 0.998027 -0.0627905 0
      vertex 1 -2.44929e-16 0
      vertex 1 -2.44929e-16 5
    endloop
  endfacet
  facet normal 0.999507 -0.0314108 0
    outer loop
      vertex 0.998027 -0.0627905 0
      vertex 1 -2.44929e-16 5
      vertex 0.998027 -0.0627905 5
    endloop
  endfacet
  facet normal 0 0 1
    outer loop
      vertex 0 0 5
      vertex 1 0 5
      vertex 0.998027 0.0627905 5
    endloop
  endfacet
  facet normal 0 0 1
    outer loop
      vertex 0 0 5
      vertex 0.998027 0.0627905 5
      vertex 0.992115 0.125333 5
    endloop
  endfacet
  facet normal 0 0 1
    outer loop
      vertex 0 0 5
      vertex 0.992115 0.125333 5
      vertex 0.982287 0.187381 5
    endloop
  endfacet
  facet normal 0 0 1
    outer loop
      vertex 0 0 5
      vertex 0.982287 0.187381 5
      vertex 0.968583 0.24869 5
    endloop
  endfacet
  facet normal 0 0 1
    outer loop
      vertex 0 0 5
      vertex 0.968583 0.24869 5
      vertex 0.951057 0.309017 5
    endloop
  endfacet
  facet normal 0 0 1
    outer loop
      vertex 0 0 5
      vertex 0.951057 0.309017 5
      vertex 0.929776 0.368125 5
    endloop
  endfacet
  facet normal 0 0 1
    outer loop
      vertex 0 0 5
      vertex 0.929776 0.368125 5
      vertex 0.904827 0.425779 5
    endloop
  endfacet
  facet normal 0 0 1
    outer loop
      vertex 0 0 5
      vertex 0.904827 0.425779 5
      vertex 0.876307 0.481754 5
    endloop
  endfacet
  facet normal 0 0 1
    outer loop
      vertex 0 0 5
      vertex 0.876307 0.481754 5
      vertex 0.844328 0.535827 5
    endloop
  endfacet
  facet normal 0 0 1
    outer loop
      vertex 0 0 5
      vertex 0.844328 0.535827 5
      vertex 0.809017 0.587785 5
    endloop
  endfacet
  facet normal 0 0 1
    outer loop
      vertex 0 0 5
      vertex 0.809017 0.587785 5
      vertex 0.770513 0.637424 5
    endloop
  endfacet
  facet normal 0 0 1
    outer loop
      vertex 0 0 5
      vertex 0.770513 0.637424 5
      vertex 0.728969 0.684547 5
    endloop
  endfacet
  facet normal 0 0 1
    outer loop
      vertex 0 0 5
      vertex 0.728969 0.684547 5
      vertex 0.684547 0.728969 5
    endloop
  endfacet
  facet normal 0 0 1
    outer loop
      vertex 0 0 5
      vertex 0.684547 0.728969 5
      vertex 0.637424 0.770513 5
    endloop
  endfacet
  facet normal 0 0 1
    outer loop
      vertex 0 0 5
      vertex 0.637424 0.770513 5
      vertex 0.587785 0.809017 5
    endloop
  endfacet
  facet normal 0 0 1
    outer loop
      vertex 0 0 5
      vertex 0.587785 0.809017 5
      vertex 0.535827 0.844328 5
    endloop
  endfacet
  facet normal 0 0 1
    outer loop
      vertex 0 0 5
      vertex 0.535827 0.844328 5
      vertex 0.481754 0.876307 5
    endloop
  endfacet
  facet normal 0 0 1
    outer loop
      vertex 0 0 5
      vertex 0.481754 0.876307 5
      vertex 0.425779 0.904827 5
    endloop
  endfacet
  facet normal 0 0 1
    outer loop
      vertex 0 0 5
      vertex 0.425779 0.904827 5
      vertex 0.368125 0.929776 5
    endloop
  endfacet
  facet normal 0 0 1
    outer loop
      vertex 0 0 5
      vertex 0.368125 0.929776 5
      vertex 0.309017 0.951057 5
    endloop
  endfacet
  facet normal 0 0 1
    outer loop
      vertex 0 0 5
      vertex 0.309017 0.951057 5
      vertex 0.24869 0.968583 5
    endloop
  endfacet
  facet normal 0 0 1
    outer loop
      vertex 0 0 5
      vertex 0.24869 0.968583 5
      vertex 0.187381 0.982287 5
    endloop
  endfacet
  facet normal 0 0 1
    outer loop
      vertex 0 0 5
      vertex 0.187381 0.982287 5
      vertex 0.125333 0.992115 5
    endloop
  endfacet
  facet normal 0 0 1
    outer loop
      vertex 0 0 5
      vertex 0.125333 0.992115 5
      vertex 0.0627905 0.998027 5
    endloop
  endfacet
  facet normal 0 0 1
    outer loop
      vertex 0 0 5
      vertex 0.0627905 0.998027 5
      vertex 6.12323e-17 1 5
    endloop
  endfacet
  facet normal 0 0 1
    outer loop
      vertex 0 0 5
      vertex 6.12323e-17 1 5
      vertex -0.0627905 0.998027 5
    endloop
  endfacet
  facet normal 0 0 1
    outer loop
      vertex 0 0 5
      vertex -0.0627905 0.998027 5
      vertex -0.125333 0.992115 5
    endloop
  endfacet
  facet normal 0 0 1
    outer loop
      vertex 0 0 5
      vertex -0.125333 0.992115 5
      vertex -0.187381 0.982287 5
    endloop
  endfacet
  facet normal 0 0 1
    outer loop
      vertex 0 0 5
      vertex -0.187381 0.982287 5
      vertex -0.24869 0.968583 5
    endloop
  endfacet
  facet normal 0 0 1
    outer loop
      vertex 0 0 5
      vertex -0.24869 0.968583 5
      vertex -0.309017 0.951057 5
    endloop
  endfacet
  facet normal 0 0 1
    outer loop
      vertex 0 0 5
      vertex -0.309017 0.951057 5
      vertex -0.368125 0.929776 5
    endloop
  endfacet
  facet normal 0 0 1
    outer loop
      vertex 0 0 5
      vertex -0.368125 0.929776 5
      vertex -0.425779 0.904827 5
    endloop
  endfacet
  facet normal 0 0 1
    outer loop
      vertex 0 0 5
      vertex -0.425779 0.904827 5
      vertex -0.481754 0.876307 5
    endloop
  endfacet
  facet normal 0 0 1
    outer loop
      vertex 0 0 5
      vertex -0.481754 0.876307 5
      vertex -0.535827 0.844328 5
    endloop
  endfacet
  facet normal 0 0 1
    outer loop
      vertex 0 0 5
      vertex -0.535827 0.844328 5
      vertex -0.587785 0.809017 5
    endloop
  endfacet
  facet normal 0 0 1
    outer loop
      vertex 0 0 5
      vertex -0.587785 0.809017 5
      vertex -0.637424 0.770513 5
    endloop
  endfacet
  facet normal 0 0 1
    outer loop
      vertex 0 0 5
      vertex -0.637424 0.770513 5
      vertex -0.684547 0.728969 5
    endloop
  endfacet
  facet normal 0 0 1
    outer loop
      vertex 0 0 5
      vertex -0.684547 0.728969 5
      vertex -0.728969 0.684547 5
    endloop
  endfacet
  facet normal 0 0 1
    outer loop
      vertex 0 0 5
      vertex -0.728969 0.684547 5
      vertex -0.770513 0.637424 5
    endloop
  endfacet
  facet normal 0 0 1
    outer loop
      vertex 0 0 5
      vertex -0.770513 0.637424 5
      vertex -0.809017 0.587785 5
    endloop
  endfacet
  facet normal 0 0 1
    outer loop
      vertex 0 0 5
      vertex -0.809017 0.587785 5
      vertex -0.844328 0.535827 5
    endloop
  endfacet
  facet normal 0 0 1
    outer loop
      vertex 0 0 5
      vertex -0.844328 0.535827 5
      vertex -0.876307 0.481754 5
    endloop
  endfacet
  facet normal 0 0 1
    outer loop
      vertex 0 0 5
      vertex -0.876307 0.481754 5
      vertex -0.904827 0.425779 5
    endloop
  endfacet
  facet normal 0 0 1
    outer loop
      vertex 0 0 5
      vertex -0.904827 0.425779 5
      vertex -0.929776 0.368125 5
    endloop
  endfacet
  facet normal 0 0 1
    outer loop
      vertex 0 0 5
      vertex -0.929776 0.368125 5
      vertex -0.951057 0.309017 5
    endloop
  endfacet
  facet normal 0 0 1
    outer loop
      vertex 0 0 5
      vertex -0.951057 0.309017 5
      vertex -0.968583 0.24869 5
    endloop
  endfacet
  facet normal 0 0 1
    outer loop
      vertex 0 0 5
      vertex -0.968583 0.24869 5
      vertex -0.982287 0.187381 5
    endloop
  endfacet
  facet normal 0 0 1
    outer loop
      vertex 0 0 5
      vertex -0.982287 0.187381 5
      vertex -0.992115 0.125333 5
    endloop
  endfacet
  facet normal 0 0 1
    outer loop
      vertex 0 0 5
      vertex -0.992115 0.125333 5
      vertex -0.998027 0.0627905 5
    endloop
  endfacet
  facet normal 0 0 1
    outer loop
      vertex 0 0 5
      vertex -0.998027 0.0627905 5
      vertex -1 1.22465e-16 5
    endloop
  endfacet
  facet normal 0 0 1
    outer loop
      vertex 0 0 5
      vertex -1 1.22465e-16 5
      vertex -0.998027 -0.0627905 5
    endloop
  endfacet
  facet normal 0 0 1
    outer loop
      vertex 0 0 5
      vertex -0.998027 -0.0627905 5
      vertex -0.992115 -0.125333 5
    endloop
  endfacet
  facet normal 0 0 1
    outer loop
      vertex 0 0 5
      vertex -0.992115 -0.125333 5
      vertex -0.982287 -0.187381 5
    endloop
  endfacet
  facet normal 0 0 1
    outer loop
      vertex 0 0 5
      vertex -0.982287 -0.187381 5
      vertex -0.968583 -0.24869 5
    endloop
  endfacet
  facet normal 0 0 1
    outer loop
      vertex 0 0 5
      vertex -0.968583 -0.24869 5
      vertex -0.951057 -0.309017 5
    endloop
  endfacet
  facet normal 0 0 1
    outer loop
      vertex 0 0 5
      vertex -0.951057 -0.309017 5
      vertex -0.929776 -0.368125 5
    endloop
  endfacet
  facet normal 0 0 1
    outer loop
      vertex 0 0 5
      vertex -0.929776 -0.368125 5
      vertex -0.904827 -0.425779 5
    endloop
  endfacet
  facet normal 0 0 1
    outer loop
      vertex 0 0 5
      vertex -0.904827 -0.425779 5
      vertex -0.876307 -0.481754 5
    endloop
  endfacet
  facet normal 0 0 1
    outer loop
      vertex 0 0 5
      vertex -0.876307 -0.481754 5
      vertex -0.844328 -0.535827 5
    endloop
  endfacet
  facet normal 0 0 1
    outer loop
      vertex 0 0 5
      vertex -0.844328 -0.535827 5
      vertex -0.809017 -0.587785 5
    endloop
  endfacet
  facet normal 0 0 1
    outer loop
      vertex 0 0 5
      vertex -0.809017 -0.587785 5
      vertex -0.770513 -0.637424 5
    endloop
  endfacet
  facet normal 0 0 1
    outer loop
      vertex 0 0 5
      vertex -0.770513 -0.637424 5
      vertex -0.728969 -0.684547 5
    endloop
  endfacet
  facet normal 0 0 1
    outer loop
      vertex 0 0 5
      vertex -0.728969 -0.684547 5
      vertex -0.684547 -0.728969 5
    endloop
  endfacet
  facet normal 0 0 1
    outer loop
      vertex 0 0 5
      vertex -0.684547 -0.728969 5
      vertex -0.637424 -0.770513 5
    endloop
  endfacet
  facet normal 0 0 1
    outer loop
      vertex 0 0 5
      vertex -0.637424 -0.770513 5
      vertex -0.587785 -0.809017 5
    endloop
  endfacet
  facet normal 0 0 1
    outer loop
      vertex 0 0 5
      vertex -0.587785 -0.809017 5
      vertex -0.535827 -0.844328 5
    endloop
  endfacet
  facet normal 0 0 1
    outer loop
      vertex 0 0 5
      vertex -0.535827 -0.844328 5
      vertex -0.481754 -0.876307 5
    endloop
  endfacet
  facet normal 0 0 1
    outer loop
      vertex 0 0 5
      vertex -0.481754 -0.876307 5
      vertex -0.425779 -0.904827 5
    endloop
  endfacet
  facet normal 0 0 1
    outer loop
      vertex 0 0 5
      vertex -0.425779 -0.904827 5
      vertex -0.368125 -0.929776 5
    endloop
  endfacet
  facet normal 0 0 1
    outer loop
      vertex 0 0 5
      vertex -0.368125 -0.929776 5
      vertex -0.309017 -0.951057 5
    endloop
  endfacet
  facet normal 0 0 1
    outer loop
      vertex 0 0 5
      vertex -0.309017 -0.951057 5
      vertex -0.24869 -0.968583 5
    endloop
  endfacet
  facet normal 0 0 1
    outer loop
      vertex 0 0 5
      vertex -0.24869 -0.968583 5
      vertex -0.187381 -0.982287 5
    endloop
  endfacet
  facet normal 0 0 1
    outer loop
      vertex 0 0 5
      vertex -0.187381 -0.982287 5
      vertex -0.125333 -0.992115 5
    endloop
  endfacet
  facet normal 0 0 1
    outer loop
      vertex 0 0 5
      vertex -0.125333 -0.992115 5
      vertex -0.0627905 -0.998027 5
    endloop
  endfacet
  facet normal 0 0 1
    outer loop
      vertex 0 0 5
      vertex -0.0627905 -0.998027 5
      vertex -1.83697e-16 -1 5
    endloop
  endfacet
  facet normal 0 0 1
    outer loop
      vertex 0 0 5
      vertex -1.83697e-16 -1 5
      vertex 0.0627905 -0.998027 5
    endloop
  endfacet
  facet normal 0 0 1
    outer loop
      vertex 0 0 5
      vertex 0.0627905 -0.998027 5
      vertex 0.125333 -0.992115 5
    endloop
  endfacet
  facet normal 0 0 1
    outer loop
      vertex 0 0 5
      vertex 0.125333 -0.992115 5
      vertex 0.187381 -0.982287 5
    endloop
  endfacet
  facet normal 0 0 1
    outer loop
      vertex 0 0 5
      vertex 0.187381 -0.982287 5
      vertex 0.24869 -0.968583 5
    endloop
  endfacet
  facet normal 0 0 1
    outer loop
      vertex 0 0 5
      vertex 0.24869 -0.968583 5
      vertex 0.309017 -0.951057 5
    endloop
  endfacet
  facet normal 0 0 1
    outer loop
      vertex 0 0 5
      vertex 0.309017 -0.951057 5
      vertex 0.368125 -0.929776 5
    endloop
  endfacet
  facet normal 0 0 1
    outer loop
      vertex 0 0 5
      vertex 0.368125 -0.929776 5
      vertex 0.425779 -0.904827 5
    endloop
  endfacet
  facet normal 0 0 1
    outer loop
      vertex 0 0 5
      vertex 0.425779 -0.904827 5
      vertex 0.481754 -0.876307 5
    endloop
  endfacet
  facet normal 0 0 1
    outer loop
      vertex 0 0 5
      vertex 0.481754 -0.876307 5
      vertex 0.535827 -0.844328 5
    endloop
  endfacet
  facet normal 0 0 1
    outer loop
      vertex 0 0 5
      vertex 0.535827 -0.844328 5
      vertex 0.587785 -0.809017 5
    endloop
  endfacet
  facet normal 0 0 1
    outer loop
      vertex 0 0 5
      vertex 0.587785 -0.809017 5
      vertex 0.637424 -0.770513 5
    endloop
  endfacet
  facet normal 0 0 1
    outer loop
      vertex 0 0 5
      vertex 0.637424 -0.770513 5
      vertex 0.684547 -0.728969 5
    endloop
  endfacet
  facet normal 0 0 1
    outer loop
      vertex 0 0 5
      vertex 0.684547 -0.728969 5
      vertex 0.728969 -0.684547 5
    endloop
  endfacet
  facet normal 0 0 1
    outer loop
      vertex 0 0 5
      vertex 0.728969 -0.684547 5
      vertex 0.770513 -0.637424 5
    endloop
  endfacet
  facet normal 0 0 1
    outer loop
      vertex 0 0 5
      vertex 0.770513 -0.637424 5
      vertex 0.809017 -0.587785 5
    endloop
  endfacet
  facet normal 0 0 1
    outer loop
      vertex 0 0 5
      vertex 0.809017 -0.587785 5
      vertex 0.844328 -0.535827 5
    endloop
  endfacet
  facet normal 0 0 1
    outer loop
      vertex 0 0 5
      vertex 0.844328 -0.535827 5
      vertex 0.876307 -0.481754 5
    endloop
  endfacet
  facet normal 0 0 1
    outer loop
      vertex 0 0 5
      vertex 0.876307 -0.481754 5
      vertex 0.904827 -0.425779 5
    endloop
  endfacet
  facet normal 0 0 1
    outer loop
      vertex 0 0 5
      vertex 0.904827 -0.425779 5
      vertex 0.929776 -0.368125 5
    endloop
  endfacet
  facet normal 0 0 1
    outer loop
      vertex 0 0 5
      vertex 0.929776 -0.368125 5
      vertex 0.951057 -0.309017 5
    endloop
  endfacet
  facet normal 0 0 1
    outer loop
      vertex 0 0 5
      vertex 0.951057 -0.309017 5
      vertex 0.968583 -0.24869 5
    endloop
  endfacet
  facet normal 0 0 1
    outer loop
      vertex 0 0 5
      vertex 0.968583 -0.24869 5
      vertex 0.982287 -0.187381 5
    endloop
  endfacet
  facet normal 0 0 1
    outer loop
      vertex 0 0 5
      vertex 0.982287 -0.187381 5
      vertex 0.992115 -0.125333 5
    endloop
  endfacet
  facet normal 0 0 1
    outer loop
      vertex 0 0 5
      vertex 0.992115 -0.125333 5
      vertex 0.998027 -0.0627905 5
    endloop
  endfacet
  facet normal 0 0 1
    outer loop
      vertex 0 0 5
      vertex 0.998027 -0.0627905 5
      vertex 1 -2.44929e-16 5
    endloop
  endfacet
endsolid sphere
