solid sphere
  facet normal 0.156386 0.0247692 0.987385
    outer loop
      vertex 0 0 1
      vertex 0.309017 0 0.951057
      vertex 0.293893 0.0954915 0.951057
    endloop
  endfacet
  facet normal 0.141078 0.071883 0.987385
    outer loop
      vertex 0 0 1
      vertex 0.293893 0.0954915 0.951057
      vertex 0.25 0.181636 0.951057
    endloop
  endfacet
  facet normal 0.11196 0.11196 0.987385
    outer loop
      vertex 0 0 1
      vertex 0.25 0.181636 0.951057
      vertex 0.181636 0.25 0.951057
    endloop
  endfacet
  facet normal 0.071883 0.141078 0.987385
    outer loop
      vertex 0 0 1
      vertex 0.181636 0.25 0.951057
      vertex 0.0954915 0.293893 0.951057
    endloop
  endfacet
  facet normal 0.0247692 0.156386 0.987385
    outer loop
      vertex 0 0 1
      vertex 0.0954915 0.293893 0.951057
      vertex 1.89218e-17 0.309017 0.951057
    endloop
  endfacet
  facet normal -0.0247692 0.156386 0.987385
    outer loop
      vertex 0 0 1
      vertex 1.89218e-17 0.309017 0.951057
      vertex -0.0954915 0.293893 0.951057
    endloop
  endfacet
  facet normal -0.071883 0.141078 0.987385
    outer loop
      vertex -0 0 1
      vertex -0.0954915 0.293893 0.951057
      vertex -0.181636 0.25 0.951057
    endloop
  endfacet
  facet normal -0.11196 0.11196 0.987385
    outer loop
      vertex -0 0 1
      vertex -0.181636 0.25 0.951057
      vertex -0.25 0.181636 0.951057
    endloop
  endfacet
  facet normal -0.141078 0.071883 0.987385
    outer loop
      vertex -0 0 1
      vertex -0.25 0.181636 0.951057
      vertex -0.293893 0.0954915 0.951057
    endloop
  endfacet
  facet normal -0.156386 0.0247692 0.987385
    outer loop
      vertex -0 0 1
      vertex -0.293893 0.0954915 0.951057
      vertex -0.309017 3.78437e-17 0.951057
    endloop
  endfacet
  facet normal -0.156386 -0.0247692 0.987385
    outer loop
      vertex -0 0 1
      vertex -0.309017 3.78437e-17 0.951057
      vertex -0.293893 -0.0954915 0.951057
    endloop
  endfacet
  facet normal -0.141078 -0.071883 0.987385
    outer loop
      vertex -0 -0 1
      vertex -0.293893 -0.0954915 0.951057
      vertex -0.25 -0.181636 0.951057
    endloop
  endfacet
  facet normal -0.11196 -0.11196 0.987385
    outer loop
      vertex -0 -0 1
      vertex -0.25 -0.181636 0.951057
      vertex -0.181636 -0.25 0.951057
    endloop
  endfacet
  facet normal -0.071883 -0.141078 0.987385
    outer loop
      vertex -0 -0 1
      vertex -0.181636 -0.25 0.951057
      vertex -0.0954915 -0.293893 0.951057
    endloop
  endfacet
  facet normal -0.0247692 -0.156386 0.987385
    outer loop
      vertex -0 -0 1
      vertex -0.0954915 -0.293893 0.951057
      vertex -5.67655e-17 -0.309017 0.951057
    endloop
  endfacet
  facet normal 0.0247692 -0.156386 0.987385
    outer loop
      vertex -0 -0 1
      vertex -5.67655e-17 -0.309017 0.951057
      vertex 0.0954915 -0.293893 0.951057
    endloop
  endfacet
  facet normal 0.071883 -0.141078 0.987385
    outer loop
      vertex 0 -0 1
      vertex 0.0954915 -0.293893 0.951057
      vertex 0.181636 -0.25 0.951057
    endloop
  endfacet
  facet normal 0.11196 -0.11196 0.987385
    outer loop
      vertex 0 -0 1
      vertex 0.181636 -0.25 0.951057
      vertex 0.25 -0.181636 0.951057
    endloop
  endfacet
  facet normal 0.141078 -0.071883 0.987385
    outer loop
      vertex 0 -0 1
      vertex 0.25 -0.181636 0.951057
      vertex 0.293893 -0.0954915 0.951057
    endloop
  endfacet
  facet normal 0.156386 -0.0247692 0.987385
    outer loop
      vertex 0 -0 1
      vertex 0.293893 -0.0954915 0.951057
      vertex 0.309017 -7.56873e-17 0.951057
    endloop
  endfacet
  facet normal 0.452821 0.0717199 0.888712
    outer loop
      vertex 0.309017 0 0.951057
      vertex 0.587785 0 0.809017
      vertex 0.559017 0.181636 0.809017
    endloop
  endfacet
  facet normal 0.452821 0.0717199 0.888712
    outer loop
      vertex 0.309017 0 0.951057
      vertex 0.559017 0.181636 0.809017
      vertex 0.293893 0.0954915 0.951057
    endloop
  endfacet
  facet normal 0.408496 0.208139 0.888712
    outer loop
      vertex 0.293893 0.0954915 0.951057
      vertex 0.559017 0.181636 0.809017
      vertex 0.475528 0.345492 0.809017
    endloop
  endfacet
  facet normal 0.408496 0.208139 0.888712
    outer loop
      vertex 0.293893 0.0954915 0.951057
      vertex 0.475528 0.345492 0.809017
      vertex 0.25 0.181636 0.951057
    endloop
  endfacet
  facet normal 0.324184 0.324184 0.888712
    outer loop
      vertex 0.25 0.181636 0.951057
      vertex 0.475528 0.345492 0.809017
      vertex 0.345492 0.475528 0.809017
    endloop
  endfacet
  facet normal 0.324184 0.324184 0.888712
    outer loop
      vertex 0.25 0.181636 0.951057
      vertex 0.345492 0.475528 0.809017
      vertex 0.181636 0.25 0.951057
    endloop
  endfacet
  facet normal 0.208139 0.408496 0.888712
    outer loop
      vertex 0.181636 0.25 0.951057
      vertex 0.345492 0.475528 0.809017
      vertex 0.181636 0.559017 0.809017
    endloop
  endfacet
  facet normal 0.208139 0.408496 0.888712
    outer loop
      vertex 0.181636 0.25 0.951057
      vertex 0.181636 0.559017 0.809017
      vertex 0.0954915 0.293893 0.951057
    endloop
  endfacet
  facet normal 0.0717199 0.452821 0.888712
    outer loop
      vertex 0.0954915 0.293893 0.951057
      vertex 0.181636 0.559017 0.809017
      vertex 3.59915e-17 0.587785 0.809017
    endloop
  endfacet
  facet normal 0.0717199 0.452821 0.888712
    outer loop
      vertex 0.0954915 0.293893 0.951057
      vertex 3.59915e-17 0.587785 0.809017
      vertex 1.89218e-17 0.309017 0.951057
    endloop
  endfacet
  facet normal -0.0717199 0.452821 0.888712
    outer loop
      vertex 1.89218e-17 0.309017 0.951057
      vertex 3.59915e-17 0.587785 0.809017
      vertex -0.181636 0.559017 0.809017
    endloop
  endfacet
  facet normal -0.0717199 0.452821 0.888712
    outer loop
      vertex 1.89218e-17 0.309017 0.951057
      vertex -0.181636 0.559017 0.809017
      vertex -0.0954915 0.293893 0.951057
    endloop
  endfacet
  facet normal -0.208139 0.408496 0.888712
    outer loop
      vertex -0.0954915 0.293893 0.951057
      vertex -0.181636 0.559017 0.809017
      vertex -0.345492 0.475528 0.809017
    endloop
  endfacet
  facet normal -0.208139 0.408496 0.888712
    outer loop
      vertex -0.0954915 0.293893 0.951057
      vertex -0.345492 0.475528 0.809017
      vertex -0.181636 0.25 0.951057
    endloop
  endfacet
  facet normal -0.324184 0.324184 0.888712
    outer loop
      vertex -0.181636 0.25 0.951057
      vertex -0.345492 0.475528 0.809017
      vertex -0.475528 0.345492 0.809017
    endloop
  endfacet
  facet normal -0.324184 0.324184 0.888712
    outer loop
      vertex -0.181636 0.25 0.951057
      vertex -0.475528 0.345492 0.809017
      vertex -0.25 0.181636 0.951057
    endloop
  endfacet
  facet normal -0.408496 0.208139 0.888712
    outer loop
      vertex -0.25 0.181636 0.951057
      vertex -0.475528 0.345492 0.809017
      vertex -0.559017 0.181636 0.809017
    endloop
  endfacet
  facet normal -0.408496 0.208139 0.888712
    outer loop
      vertex -0.25 0.181636 0.951057
      vertex -0.559017 0.181636 0.809017
      vertex -0.293893 0.0954915 0.951057
    endloop
  endfacet
  facet normal -0.452821 0.0717199 0.888712
    outer loop
      vertex -0.293893 0.0954915 0.951057
      vertex -0.559017 0.181636 0.809017
      vertex -0.587785 7.19829e-17 0.809017
    endloop
  endfacet
  facet normal -0.452821 0.0717199 0.888712
    outer loop
      vertex -0.293893 0.0954915 0.951057
      vertex -0.587785 7.19829e-17 0.809017
      vertex -0.309017 3.78437e-17 0.951057
    endloop
  endfacet
  facet normal -0.452821 -0.0717199 0.888712
    outer loop
      vertex -0.309017 3.78437e-17 0.951057
      vertex -0.587785 7.19829e-17 0.809017
      vertex -0.559017 -0.181636 0.809017
    endloop
  endfacet
  facet normal -0.452821 -0.0717199 0.888712
    outer loop
      vertex -0.309017 3.78437e-17 0.951057
      vertex -0.559017 -0.181636 0.809017
      vertex -0.293893 -0.0954915 0.951057
    endloop
  endfacet
  facet normal -0.408496 -0.208139 0.888712
    outer loop
      vertex -0.293893 -0.0954915 0.951057
      vertex -0.559017 -0.181636 0.809017
      vertex -0.475528 -0.345492 0.809017
    endloop
  endfacet
  facet normal -0.408496 -0.208139 0.888712
    outer loop
      vertex -0.293893 -0.0954915 0.951057
      vertex -0.475528 -0.345492 0.809017
      vertex -0.25 -0.181636 0.951057
    endloop
  endfacet
  facet normal -0.324184 -0.324184 0.888712
    outer loop
      vertex -0.25 -0.181636 0.951057
      vertex -0.475528 -0.345492 0.809017
      vertex -0.345492 -0.475528 0.809017
    endloop
  endfacet
  facet normal -0.324184 -0.324184 0.888712
    outer loop
      vertex -0.25 -0.181636 0.951057
      vertex -0.345492 -0.475528 0.809017
      vertex -0.181636 -0.25 0.951057
    endloop
  endfacet
  facet normal -0.208139 -0.408496 0.888712
    outer loop
      vertex -0.181636 -0.25 0.951057
      vertex -0.345492 -0.475528 0.809017
      vertex -0.181636 -0.559017 0.809017
    endloop
  endfacet
  facet normal -0.208139 -0.408496 0.888712
    outer loop
      vertex -0.181636 -0.25 0.951057
      vertex -0.181636 -0.559017 0.809017
      vertex -0.0954915 -0.293893 0.951057
    endloop
  endfacet
  facet normal -0.0717199 -0.452821 0.888712
    outer loop
      vertex -0.0954915 -0.293893 0.951057
      vertex -0.181636 -0.559017 0.809017
      vertex -1.07974e-16 -0.587785 0.809017
    endloop
  endfacet
  facet normal -0.0717199 -0.452821 0.888712
    outer loop
      vertex -0.0954915 -0.293893 0.951057
      vertex -1.07974e-16 -0.587785 0.809017
      vertex -5.67655e-17 -0.309017 0.951057
    endloop
  endfacet
  facet normal 0.0717199 -0.452821 0.888712
    outer loop
      vertex -5.67655e-17 -0.309017 0.951057
      vertex -1.07974e-16 -0.587785 0.809017
      vertex 0.181636 -0.559017 0.809017
    endloop
  endfacet
  facet normal 0.0717199 -0.452821 0.888712
    outer loop
      vertex -5.67655e-17 -0.309017 0.951057
      vertex 0.181636 -0.559017 0.809017
      vertex 0.0954915 -0.293893 0.951057
    endloop
  endfacet
  facet normal 0.208139 -0.408496 0.888712
    outer loop
      vertex 0.0954915 -0.293893 0.951057
      vertex 0.181636 -0.559017 0.809017
      vertex 0.345492 -0.475528 0.809017
    endloop
  endfacet
  facet normal 0.208139 -0.408496 0.888712
    outer loop
      vertex 0.0954915 -0.293893 0.951057
      vertex 0.345492 -0.475528 0.809017
      vertex 0.181636 -0.25 0.951057
    endloop
  endfacet
  facet normal 0.324184 -0.324184 0.888712
    outer loop
      vertex 0.181636 -0.25 0.951057
      vertex 0.345492 -0.475528 0.809017
      vertex 0.475528 -0.345492 0.809017
    endloop
  endfacet
  facet normal 0.324184 -0.324184 0.888712
    outer loop
      vertex 0.181636 -0.25 0.951057
      vertex 0.475528 -0.345492 0.809017
      vertex 0.25 -0.181636 0.951057
    endloop
  endfacet
  facet normal 0.408496 -0.208139 0.888712
    outer loop
      vertex 0.25 -0.181636 0.951057
      vertex 0.475528 -0.345492 0.809017
      vertex 0.559017 -0.181636 0.809017
    endloop
  endfacet
  facet normal 0.408496 -0.208139 0.888712
    outer loop
      vertex 0.25 -0.181636 0.951057
      vertex 0.559017 -0.181636 0.809017
      vertex 0.293893 -0.0954915 0.951057
    endloop
  endfacet
  facet normal 0.452821 -0.0717199 0.888712
    outer loop
      vertex 0.293893 -0.0954915 0.951057
      vertex 0.559017 -0.181636 0.809017
      vertex 0.587785 -1.43966e-16 0.809017
    endloop
  endfacet
  facet normal 0.452821 -0.0717199 0.888712
    outer loop
      vertex 0.293893 -0.0954915 0.951057
      vertex 0.587785 -1.43966e-16 0.809017
      vertex 0.309017 -7.56873e-17 0.951057
    endloop
  endfacet
  facet normal 0.702714 0.111299 0.702714
    outer loop
      vertex 0.587785 0 0.809017
      vertex 0.809017 0 0.587785
      vertex 0.769421 0.25 0.587785
    endloop
  endfacet
  facet normal 0.702714 0.111299 0.702714
    outer loop
      vertex 0.587785 0 0.809017
      vertex 0.769421 0.25 0.587785
      vertex 0.559017 0.181636 0.809017
    endloop
  endfacet
  facet normal 0.633927 0.323002 0.702714
    outer loop
      vertex 0.559017 0.181636 0.809017
      vertex 0.769421 0.25 0.587785
      vertex 0.654508 0.475528 0.587785
    endloop
  endfacet
  facet normal 0.633927 0.323002 0.702714
    outer loop
      vertex 0.559017 0.181636 0.809017
      vertex 0.654508 0.475528 0.587785
      vertex 0.475528 0.345492 0.809017
    endloop
  endfacet
  facet normal 0.503087 0.503087 0.702714
    outer loop
      vertex 0.475528 0.345492 0.809017
      vertex 0.654508 0.475528 0.587785
      vertex 0.475528 0.654508 0.587785
    endloop
  endfacet
  facet normal 0.503087 0.503087 0.702714
    outer loop
      vertex 0.475528 0.345492 0.809017
      vertex 0.475528 0.654508 0.587785
      vertex 0.345492 0.475528 0.809017
    endloop
  endfacet
  facet normal 0.323002 0.633927 0.702714
    outer loop
      vertex 0.345492 0.475528 0.809017
      vertex 0.475528 0.654508 0.587785
      vertex 0.25 0.769421 0.587785
    endloop
  endfacet
  facet normal 0.323002 0.633927 0.702714
    outer loop
      vertex 0.345492 0.475528 0.809017
      vertex 0.25 0.769421 0.587785
      vertex 0.181636 0.559017 0.809017
    endloop
  endfacet
  facet normal 0.111299 0.702714 0.702714
    outer loop
      vertex 0.181636 0.559017 0.809017
      vertex 0.25 0.769421 0.587785
      vertex 4.9538e-17 0.809017 0.587785
    endloop
  endfacet
  facet normal 0.111299 0.702714 0.702714
    outer loop
      vertex 0.181636 0.559017 0.809017
      vertex 4.9538e-17 0.809017 0.587785
      vertex 3.59915e-17 0.587785 0.809017
    endloop
  endfacet
  facet normal -0.111299 0.702714 0.702714
    outer loop
      vertex 3.59915e-17 0.587785 0.809017
      vertex 4.9538e-17 0.809017 0.587785
      vertex -0.25 0.769421 0.587785
    endloop
  endfacet
  facet normal -0.111299 0.702714 0.702714
    outer loop
      vertex 3.59915e-17 0.587785 0.809017
      vertex -0.25 0.769421 0.587785
      vertex -0.181636 0.559017 0.809017
    endloop
  endfacet
  facet normal -0.323002 0.633927 0.702714
    outer loop
      vertex -0.181636 0.559017 0.809017
      vertex -0.25 0.769421 0.587785
      vertex -0.475528 0.654508 0.587785
    endloop
  endfacet
  facet normal -0.323002 0.633927 0.702714
    outer loop
      vertex -0.181636 0.559017 0.809017
      vertex -0.475528 0.654508 0.587785
      vertex -0.345492 0.475528 0.809017
    endloop
  endfacet
  facet normal -0.503087 0.503087 0.702714
    outer loop
      vertex -0.345492 0.475528 0.809017
      vertex -0.475528 0.654508 0.587785
      vertex -0.654508 0.475528 0.587785
    endloop
  endfacet
  facet normal -0.503087 0.503087 0.702714
    outer loop
      vertex -0.345492 0.475528 0.809017
      vertex -0.654508 0.475528 0.587785
      vertex -0.475528 0.345492 0.809017
    endloop
  endfacet
  facet normal -0.633927 0.323002 0.702714
    outer loop
      vertex -0.475528 0.345492 0.809017
      vertex -0.654508 0.475528 0.587785
      vertex -0.769421 0.25 0.587785
    endloop
  endfacet
  facet normal -0.633927 0.323002 0.702714
    outer loop
      vertex -0.475528 0.345492 0.809017
      vertex -0.769421 0.25 0.587785
      vertex -0.559017 0.181636 0.809017
    endloop
  endfacet
  facet normal -0.702714 0.111299 0.702714
    outer loop
      vertex -0.559017 0.181636 0.809017
      vertex -0.769421 0.25 0.587785
      vertex -0.809017 9.9076e-17 0.587785
    endloop
  endfacet
  facet normal -0.702714 0.111299 0.702714
    outer loop
      vertex -0.559017 0.181636 0.809017
      vertex -0.809017 9.9076e-17 0.587785
      vertex -0.587785 7.19829e-17 0.809017
    endloop
  endfacet
  facet normal -0.702714 -0.111299 0.702714
    outer loop
      vertex -0.587785 7.19829e-17 0.809017
      vertex -0.809017 9.9076e-17 0.587785
      vertex -0.769421 -0.25 0.587785
    endloop
  endfacet
  facet normal -0.702714 -0.111299 0.702714
    outer loop
      vertex -0.587785 7.19829e-17 0.809017
      vertex -0.769421 -0.25 0.587785
      vertex -0.559017 -0.181636 0.809017
    endloop
  endfacet
  facet normal -0.633927 -0.323002 0.702714
    outer loop
      vertex -0.559017 -0.181636 0.809017
      vertex -0.769421 -0.25 0.587785
      vertex -0.654508 -0.475528 0.587785
    endloop
  endfacet
  facet normal -0.633927 -0.323002 0.702714
    outer loop
      vertex -0.559017 -0.181636 0.809017
      vertex -0.654508 -0.475528 0.587785
      vertex -0.475528 -0.345492 0.809017
    endloop
  endfacet
  facet normal -0.503087 -0.503087 0.702714
    outer loop
      vertex -0.475528 -0.345492 0.809017
      vertex -0.654508 -0.475528 0.587785
      vertex -0.475528 -0.654508 0.587785
    endloop
  endfacet
  facet normal -0.503087 -0.503087 0.702714
    outer loop
      vertex -0.475528 -0.345492 0.809017
      vertex -0.475528 -0.654508 0.587785
      vertex -0.345492 -0.475528 0.809017
    endloop
  endfacet
  facet normal -0.323002 -0.633927 0.702714
    outer loop
      vertex -0.345492 -0.475528 0.809017
      vertex -0.475528 -0.654508 0.587785
      vertex -0.25 -0.769421 0.587785
    endloop
  endfacet
  facet normal -0.323002 -0.633927 0.702714
    outer loop
      vertex -0.345492 -0.475528 0.809017
      vertex -0.25 -0.769421 0.587785
      vertex -0.181636 -0.559017 0.809017
    endloop
  endfacet
  facet normal -0.111299 -0.702714 0.702714
    outer loop
      vertex -0.181636 -0.559017 0.809017
      vertex -0.25 -0.769421 0.587785
      vertex -1.48614e-16 -0.809017 0.587785
    endloop
  endfacet
  facet normal -0.111299 -0.702714 0.702714
    outer loop
      vertex -0.181636 -0.559017 0.809017
      vertex -1.48614e-16 -0.809017 0.587785
      vertex -1.07974e-16 -0.587785 0.809017
    endloop
  endfacet
  facet normal 0.111299 -0.702714 0.702714
    outer loop
      vertex -1.07974e-16 -0.587785 0.809017
      vertex -1.48614e-16 -0.809017 0.587785
      vertex 0.25 -0.769421 0.587785
    endloop
  endfacet
  facet normal 0.111299 -0.702714 0.702714
    outer loop
      vertex -1.07974e-16 -0.587785 0.809017
      vertex 0.25 -0.769421 0.587785
      vertex 0.181636 -0.559017 0.809017
    endloop
  endfacet
  facet normal 0.323002 -0.633927 0.702714
    outer loop
      vertex 0.181636 -0.559017 0.809017
      vertex 0.25 -0.769421 0.587785
      vertex 0.475528 -0.654508 0.587785
    endloop
  endfacet
  facet normal 0.323002 -0.633927 0.702714
    outer loop
      vertex 0.181636 -0.559017 0.809017
      vertex 0.475528 -0.654508 0.587785
      vertex 0.345492 -0.475528 0.809017
    endloop
  endfacet
  facet normal 0.503087 -0.503087 0.702714
    outer loop
      vertex 0.345492 -0.475528 0.809017
      vertex 0.475528 -0.654508 0.587785
      vertex 0.654508 -0.475528 0.587785
    endloop
  endfacet
  facet normal 0.503087 -0.503087 0.702714
    outer loop
      vertex 0.345492 -0.475528 0.809017
      vertex 0.654508 -0.475528 0.587785
      vertex 0.475528 -0.345492 0.809017
    endloop
  endfacet
  facet normal 0.633927 -0.323002 0.702714
    outer loop
      vertex 0.475528 -0.345492 0.809017
      vertex 0.654508 -0.475528 0.587785
      vertex 0.769421 -0.25 0.587785
    endloop
  endfacet
  facet normal 0.633927 -0.323002 0.702714
    outer loop
      vertex 0.475528 -0.345492 0.809017
      vertex 0.769421 -0.25 0.587785
      vertex 0.559017 -0.181636 0.809017
    endloop
  endfacet
  facet normal 0.702714 -0.111299 0.702714
    outer loop
      vertex 0.559017 -0.181636 0.809017
      vertex 0.769421 -0.25 0.587785
      vertex 0.809017 -1.98152e-16 0.587785
    endloop
  endfacet
  facet normal 0.702714 -0.111299 0.702714
    outer loop
      vertex 0.559017 -0.181636 0.809017
      vertex 0.809017 -1.98152e-16 0.587785
      vertex 0.587785 -1.43966e-16 0.809017
    endloop
  endfacet
  facet normal 0.882265 0.139737 0.449536
    outer loop
      vertex 0.809017 0 0.587785
      vertex 0.951057 0 0.309017
      vertex 0.904508 0.293893 0.309017
    endloop
  endfacet
  facet normal 0.882265 0.139737 0.449536
    outer loop
      vertex 0.809017 0 0.587785
      vertex 0.904508 0.293893 0.309017
      vertex 0.769421 0.25 0.587785
    endloop
  endfacet
  facet normal 0.795902 0.405533 0.449536
    outer loop
      vertex 0.769421 0.25 0.587785
      vertex 0.904508 0.293893 0.309017
      vertex 0.769421 0.559017 0.309017
    endloop
  endfacet
  facet normal 0.795902 0.405533 0.449536
    outer loop
      vertex 0.769421 0.25 0.587785
      vertex 0.769421 0.559017 0.309017
      vertex 0.654508 0.475528 0.587785
    endloop
  endfacet
  facet normal 0.631632 0.631632 0.449536
    outer loop
      vertex 0.654508 0.475528 0.587785
      vertex 0.769421 0.559017 0.309017
      vertex 0.559017 0.769421 0.309017
    endloop
  endfacet
  facet normal 0.631632 0.631632 0.449536
    outer loop
      vertex 0.654508 0.475528 0.587785
      vertex 0.559017 0.769421 0.309017
      vertex 0.475528 0.654508 0.587785
    endloop
  endfacet
  facet normal 0.405533 0.795902 0.449536
    outer loop
      vertex 0.475528 0.654508 0.587785
      vertex 0.559017 0.769421 0.309017
      vertex 0.293893 0.904508 0.309017
    endloop
  endfacet
  facet normal 0.405533 0.795902 0.449536
    outer loop
      vertex 0.475528 0.654508 0.587785
      vertex 0.293893 0.904508 0.309017
      vertex 0.25 0.769421 0.587785
    endloop
  endfacet
  facet normal 0.139737 0.882265 0.449536
    outer loop
      vertex 0.25 0.769421 0.587785
      vertex 0.293893 0.904508 0.309017
      vertex 5.82354e-17 0.951057 0.309017
    endloop
  endfacet
  facet normal 0.139737 0.882265 0.449536
    outer loop
      vertex 0.25 0.769421 0.587785
      vertex 5.82354e-17 0.951057 0.309017
      vertex 4.9538e-17 0.809017 0.587785
    endloop
  endfacet
  facet normal -0.139737 0.882265 0.449536
    outer loop
      vertex 4.9538e-17 0.809017 0.587785
      vertex 5.82354e-17 0.951057 0.309017
      vertex -0.293893 0.904508 0.309017
    endloop
  endfacet
  facet normal -0.139737 0.882265 0.449536
    outer loop
      vertex 4.9538e-17 0.809017 0.587785
      vertex -0.293893 0.904508 0.309017
      vertex -0.25 0.769421 0.587785
    endloop
  endfacet
  facet normal -0.405533 0.795902 0.449536
    outer loop
      vertex -0.25 0.769421 0.587785
      vertex -0.293893 0.904508 0.309017
      vertex -0.559017 0.769421 0.309017
    endloop
  endfacet
  facet normal -0.405533 0.795902 0.449536
    outer loop
      vertex -0.25 0.769421 0.587785
      vertex -0.559017 0.769421 0.309017
      vertex -0.475528 0.654508 0.587785
    endloop
  endfacet
  facet normal -0.631632 0.631632 0.449536
    outer loop
      vertex -0.475528 0.654508 0.587785
      vertex -0.559017 0.769421 0.309017
      vertex -0.769421 0.559017 0.309017
    endloop
  endfacet
  facet normal -0.631632 0.631632 0.449536
    outer loop
      vertex -0.475528 0.654508 0.587785
      vertex -0.769421 0.559017 0.309017
      vertex -0.654508 0.475528 0.587785
    endloop
  endfacet
  facet normal -0.795902 0.405533 0.449536
    outer loop
      vertex -0.654508 0.475528 0.587785
      vertex -0.769421 0.559017 0.309017
      vertex -0.904508 0.293893 0.309017
    endloop
  endfacet
  facet normal -0.795902 0.405533 0.449536
    outer loop
      vertex -0.654508 0.475528 0.587785
      vertex -0.904508 0.293893 0.309017
      vertex -0.769421 0.25 0.587785
    endloop
  endfacet
  facet normal -0.882265 0.139737 0.449536
    outer loop
      vertex -0.769421 0.25 0.587785
      vertex -0.904508 0.293893 0.309017
      vertex -0.951057 1.16471e-16 0.309017
    endloop
  endfacet
  facet normal -0.882265 0.139737 0.449536
    outer loop
      vertex -0.769421 0.25 0.587785
      vertex -0.951057 1.16471e-16 0.309017
      vertex -0.809017 9.9076e-17 0.587785
    endloop
  endfacet
  facet normal -0.882265 -0.139737 0.449536
    outer loop
      vertex -0.809017 9.9076e-17 0.587785
      vertex -0.951057 1.16471e-16 0.309017
      vertex -0.904508 -0.293893 0.309017
    endloop
  endfacet
  facet normal -0.882265 -0.139737 0.449536
    outer loop
      vertex -0.809017 9.9076e-17 0.587785
      vertex -0.904508 -0.293893 0.309017
      vertex -0.769421 -0.25 0.587785
    endloop
  endfacet
  facet normal -0.795902 -0.405533 0.449536
    outer loop
      vertex -0.769421 -0.25 0.587785
      vertex -0.904508 -0.293893 0.309017
      vertex -0.769421 -0.559017 0.309017
    endloop
  endfacet
  facet normal -0.795902 -0.405533 0.449536
    outer loop
      vertex -0.769421 -0.25 0.587785
      vertex -0.769421 -0.559017 0.309017
      vertex -0.654508 -0.475528 0.587785
    endloop
  endfacet
  facet normal -0.631632 -0.631632 0.449536
    outer loop
      vertex -0.654508 -0.475528 0.587785
      vertex -0.769421 -0.559017 0.309017
      vertex -0.559017 -0.769421 0.309017
    endloop
  endfacet
  facet normal -0.631632 -0.631632 0.449536
    outer loop
      vertex -0.654508 -0.475528 0.587785
      vertex -0.559017 -0.769421 0.309017
      vertex -0.475528 -0.654508 0.587785
    endloop
  endfacet
  facet normal -0.405533 -0.795902 0.449536
    outer loop
      vertex -0.475528 -0.654508 0.587785
      vertex -0.559017 -0.769421 0.309017
      vertex -0.293893 -0.904508 0.309017
    endloop
  endfacet
  facet normal -0.405533 -0.795902 0.449536
    outer loop
      vertex -0.475528 -0.654508 0.587785
      vertex -0.293893 -0.904508 0.309017
      vertex -0.25 -0.769421 0.587785
    endloop
  endfacet
  facet normal -0.139737 -0.882265 0.449536
    outer loop
      vertex -0.25 -0.769421 0.587785
      vertex -0.293893 -0.904508 0.309017
      vertex -1.74706e-16 -0.951057 0.309017
    endloop
  endfacet
  facet normal -0.139737 -0.882265 0.449536
    outer loop
      vertex -0.25 -0.769421 0.587785
      vertex -1.74706e-16 -0.951057 0.309017
      vertex -1.48614e-16 -0.809017 0.587785
    endloop
  endfacet
  facet normal 0.139737 -0.882265 0.449536
    outer loop
      vertex -1.48614e-16 -0.809017 0.587785
      vertex -1.74706e-16 -0.951057 0.309017
      vertex 0.293893 -0.904508 0.309017
    endloop
  endfacet
  facet normal 0.139737 -0.882265 0.449536
    outer loop
      vertex -1.48614e-16 -0.809017 0.587785
      vertex 0.293893 -0.904508 0.309017
      vertex 0.25 -0.769421 0.587785
    endloop
  endfacet
  facet normal 0.405533 -0.795902 0.449536
    outer loop
      vertex 0.25 -0.769421 0.587785
      vertex 0.293893 -0.904508 0.309017
      vertex 0.559017 -0.769421 0.309017
    endloop
  endfacet
  facet normal 0.405533 -0.795902 0.449536
    outer loop
      vertex 0.25 -0.769421 0.587785
      vertex 0.559017 -0.769421 0.309017
      vertex 0.475528 -0.654508 0.587785
    endloop
  endfacet
  facet normal 0.631632 -0.631632 0.449536
    outer loop
      vertex 0.475528 -0.654508 0.587785
      vertex 0.559017 -0.769421 0.309017
      vertex 0.769421 -0.559017 0.309017
    endloop
  endfacet
  facet normal 0.631632 -0.631632 0.449536
    outer loop
      vertex 0.475528 -0.654508 0.587785
      vertex 0.769421 -0.559017 0.309017
      vertex 0.654508 -0.475528 0.587785
    endloop
  endfacet
  facet normal 0.795902 -0.405533 0.449536
    outer loop
      vertex 0.654508 -0.475528 0.587785
      vertex 0.769421 -0.559017 0.309017
      vertex 0.904508 -0.293893 0.309017
    endloop
  endfacet
  facet normal 0.795902 -0.405533 0.449536
    outer loop
      vertex 0.654508 -0.475528 0.587785
      vertex 0.904508 -0.293893 0.309017
      vertex 0.769421 -0.25 0.587785
    endloop
  endfacet
  facet normal 0.882265 -0.139737 0.449536
    outer loop
      vertex 0.769421 -0.25 0.587785
      vertex 0.904508 -0.293893 0.309017
      vertex 0.951057 -2.32942e-16 0.309017
    endloop
  endfacet
  facet normal 0.882265 -0.139737 0.449536
    outer loop
      vertex 0.769421 -0.25 0.587785
      vertex 0.951057 -2.32942e-16 0.309017
      vertex 0.809017 -1.98152e-16 0.587785
    endloop
  endfacet
  facet normal 0.97582 0.154555 0.154555
    outer loop
      vertex 0.951057 0 0.309017
      vertex 1 0 6.12323e-17
      vertex 0.951057 0.309017 6.12323e-17
    endloop
  endfacet
  facet normal 0.97582 0.154555 0.154555
    outer loop
      vertex 0.951057 0 0.309017
      vertex 0.951057 0.309017 6.12323e-17
      vertex 0.904508 0.293893 0.309017
    endloop
  endfacet
  facet normal 0.8803 0.448535 0.154555
    outer loop
      vertex 0.904508 0.293893 0.309017
      vertex 0.951057 0.309017 6.12323e-17
      vertex 0.809017 0.587785 6.12323e-17
    endloop
  endfacet
  facet normal 0.8803 0.448535 0.154555
    outer loop
      vertex 0.904508 0.293893 0.309017
      vertex 0.809017 0.587785 6.12323e-17
      vertex 0.769421 0.559017 0.309017
    endloop
  endfacet
  facet normal 0.69861 0.69861 0.154555
    outer loop
      vertex 0.769421 0.559017 0.309017
      vertex 0.809017 0.587785 6.12323e-17
      vertex 0.587785 0.809017 6.12323e-17
    endloop
  endfacet
  facet normal 0.69861 0.69861 0.154555
    outer loop
      vertex 0.769421 0.559017 0.309017
      vertex 0.587785 0.809017 6.12323e-17
      vertex 0.559017 0.769421 0.309017
    endloop
  endfacet
  facet normal 0.448535 0.8803 0.154555
    outer loop
      vertex 0.559017 0.769421 0.309017
      vertex 0.587785 0.809017 6.12323e-17
      vertex 0.309017 0.951057 6.12323e-17
    endloop
  endfacet
  facet normal 0.448535 0.8803 0.154555
    outer loop
      vertex 0.559017 0.769421 0.309017
      vertex 0.309017 0.951057 6.12323e-17
      vertex 0.293893 0.904508 0.309017
    endloop
  endfacet
  facet normal 0.154555 0.97582 0.154555
    outer loop
      vertex 0.293893 0.904508 0.309017
      vertex 0.309017 0.951057 6.12323e-17
      vertex 6.12323e-17 1 6.12323e-17
    endloop
  endfacet
  facet normal 0.154555 0.97582 0.154555
    outer loop
      vertex 0.293893 0.904508 0.309017
      vertex 6.12323e-17 1 6.12323e-17
      vertex 5.82354e-17 0.951057 0.309017
    endloop
  endfacet
  facet normal -0.154555 0.97582 0.154555
    outer loop
      vertex 5.82354e-17 0.951057 0.309017
      vertex 6.12323e-17 1 6.12323e-17
      vertex -0.309017 0.951057 6.12323e-17
    endloop
  endfacet
  facet normal -0.154555 0.97582 0.154555
    outer loop
      vertex 5.82354e-17 0.951057 0.309017
      vertex -0.309017 0.951057 6.12323e-17
      vertex -0.293893 0.904508 0.309017
    endloop
  endfacet
  facet normal -0.448535 0.8803 0.154555
    outer loop
      vertex -0.293893 0.904508 0.309017
      vertex -0.309017 0.951057 6.12323e-17
      vertex -0.587785 0.809017 6.12323e-17
    endloop
  endfacet
  facet normal -0.448535 0.8803 0.154555
    outer loop
      vertex -0.293893 0.904508 0.309017
      vertex -0.587785 0.809017 6.12323e-17
      vertex -0.559017 0.769421 0.309017
    endloop
  endfacet
  facet normal -0.69861 0.69861 0.154555
    outer loop
      vertex -0.559017 0.769421 0.309017
      vertex -0.587785 0.809017 6.12323e-17
      vertex -0.809017 0.587785 6.12323e-17
    endloop
  endfacet
  facet normal -0.69861 0.69861 0.154555
    outer loop
      vertex -0.559017 0.769421 0.309017
      vertex -0.809017 0.587785 6.12323e-17
      vertex -0.769421 0.559017 0.309017
    endloop
  endfacet
  facet normal -0.8803 0.448535 0.154555
    outer loop
      vertex -0.769421 0.559017 0.309017
      vertex -0.809017 0.587785 6.12323e-17
      vertex -0.951057 0.309017 6.12323e-17
    endloop
  endfacet
  facet normal -0.8803 0.448535 0.154555
    outer loop
      vertex -0.769421 0.559017 0.309017
      vertex -0.951057 0.309017 6.12323e-17
      vertex -0.904508 0.293893 0.309017
    endloop
  endfacet
  facet normal -0.97582 0.154555 0.154555
    outer loop
      vertex -0.904508 0.293893 0.309017
      vertex -0.951057 0.309017 6.12323e-17
      vertex -1 1.22465e-16 6.12323e-17
    endloop
  endfacet
  facet normal -0.97582 0.154555 0.154555
    outer loop
      vertex -0.904508 0.293893 0.309017
      vertex -1 1.22465e-16 6.12323e-17
      vertex -0.951057 1.16471e-16 0.309017
    endloop
  endfacet
  facet normal -0.97582 -0.154555 0.154555
    outer loop
      vertex -0.951057 1.16471e-16 0.309017
      vertex -1 1.22465e-16 6.12323e-17
      vertex -0.951057 -0.309017 6.12323e-17
    endloop
  endfacet
  facet normal -0.97582 -0.154555 0.154555
    outer loop
      vertex -0.951057 1.16471e-16 0.309017
      vertex -0.951057 -0.309017 6.12323e-17
      vertex -0.904508 -0.293893 0.309017
    endloop
  endfacet
  facet normal -0.8803 -0.448535 0.154555
    outer loop
      vertex -0.904508 -0.293893 0.309017
      vertex -0.951057 -0.309017 6.12323e-17
      vertex -0.809017 -0.587785 6.12323e-17
    endloop
  endfacet
  facet normal -0.8803 -0.448535 0.154555
    outer loop
      vertex -0.904508 -0.293893 0.309017
      vertex -0.809017 -0.587785 6.12323e-17
      vertex -0.769421 -0.559017 0.309017
    endloop
  endfacet
  facet normal -0.69861 -0.69861 0.154555
    outer loop
      vertex -0.769421 -0.559017 0.309017
      vertex -0.809017 -0.587785 6.12323e-17
      vertex -0.587785 -0.809017 6.12323e-17
    endloop
  endfacet
  facet normal -0.69861 -0.69861 0.154555
    outer loop
      vertex -0.769421 -0.559017 0.309017
      vertex -0.587785 -0.809017 6.12323e-17
      vertex -0.559017 -0.769421 0.309017
    endloop
  endfacet
  facet normal -0.448535 -0.8803 0.154555
    outer loop
      vertex -0.559017 -0.769421 0.309017
      vertex -0.587785 -0.809017 6.12323e-17
      vertex -0.309017 -0.951057 6.12323e-17
    endloop
  endfacet
  facet normal -0.448535 -0.8803 0.154555
    outer loop
      vertex -0.559017 -0.769421 0.309017
      vertex -0.309017 -0.951057 6.12323e-17
      vertex -0.293893 -0.904508 0.309017
    endloop
  endfacet
  facet normal -0.154555 -0.97582 0.154555
    outer loop
      vertex -0.293893 -0.904508 0.309017
      vertex -0.309017 -0.951057 6.12323e-17
      vertex -1.83697e-16 -1 6.12323e-17
    endloop
  endfacet
  facet normal -0.154555 -0.97582 0.154555
    outer loop
      vertex -0.293893 -0.904508 0.309017
      vertex -1.83697e-16 -1 6.12323e-17
      vertex -1.74706e-16 -0.951057 0.309017
    endloop
  endfacet
  facet normal 0.154555 -0.97582 0.154555
    outer loop
      vertex -1.74706e-16 -0.951057 0.309017
      vertex -1.83697e-16 -1 6.12323e-17
      vertex 0.309017 -0.951057 6.12323e-17
    endloop
  endfacet
  facet normal 0.154555 -0.97582 0.154555
    outer loop
      vertex -1.74706e-16 -0.951057 0.309017
      vertex 0.309017 -0.951057 6.12323e-17
      vertex 0.293893 -0.904508 0.309017
    endloop
  endfacet
  facet normal 0.448535 -0.8803 0.154555
    outer loop
      vertex 0.293893 -0.904508 0.309017
      vertex 0.309017 -0.951057 6.12323e-17
      vertex 0.587785 -0.809017 6.12323e-17
    endloop
  endfacet
  facet normal 0.448535 -0.8803 0.154555
    outer loop
      vertex 0.293893 -0.904508 0.309017
      vertex 0.587785 -0.809017 6.12323e-17
      vertex 0.559017 -0.769421 0.309017
    endloop
  endfacet
  facet normal 0.69861 -0.69861 0.154555
    outer loop
      vertex 0.559017 -0.769421 0.309017
      vertex 0.587785 -0.809017 6.12323e-17
      vertex 0.809017 -0.587785 6.12323e-17
    endloop
  endfacet
  facet normal 0.69861 -0.69861 0.154555
    outer loop
      vertex 0.559017 -0.769421 0.309017
      vertex 0.809017 -0.587785 6.12323e-17
      vertex 0.769421 -0.559017 0.309017
    endloop
  endfacet
  facet normal 0.8803 -0.448535 0.154555
    outer loop
      vertex 0.769421 -0.559017 0.309017
      vertex 0.809017 -0.587785 6.12323e-17
      vertex 0.951057 -0.309017 6.12323e-17
    endloop
  endfacet
  facet normal 0.8803 -0.448535 0.154555
    outer loop
      vertex 0.769421 -0.559017 0.309017
      vertex 0.951057 -0.309017 6.12323e-17
      vertex 0.904508 -0.293893 0.309017
    endloop
  endfacet
  facet normal 0.97582 -0.154555 0.154555
    outer loop
      vertex 0.904508 -0.293893 0.309017
      vertex 0.951057 -0.309017 6.12323e-17
      vertex 1 -2.44929e-16 6.12323e-17
    endloop
  endfacet
  facet normal 0.97582 -0.154555 0.154555
    outer loop
      vertex 0.904508 -0.293893 0.309017
      vertex 1 -2.44929e-16 6.12323e-17
      vertex 0.951057 -2.32942e-16 0.309017
    endloop
  endfacet
  facet normal 0.97582 0.154555 -0.154555
    outer loop
      vertex 1 0 6.12323e-17
      vertex 0.951057 0 -0.309017
      vertex 0.904508 0.293893 -0.309017
    endloop
  endfacet
  facet normal 0.97582 0.154555 -0.154555
    outer loop
      vertex 1 0 6.12323e-17
      vertex 0.904508 0.293893 -0.309017
      vertex 0.951057 0.309017 6.12323e-17
    endloop
  endfacet
  facet normal 0.8803 0.448535 -0.154555
    outer loop
      vertex 0.951057 0.309017 6.12323e-17
      vertex 0.904508 0.293893 -0.309017
      vertex 0.769421 0.559017 -0.309017
    endloop
  endfacet
  facet normal 0.8803 0.448535 -0.154555
    outer loop
      vertex 0.951057 0.309017 6.12323e-17
      vertex 0.769421 0.559017 -0.309017
      vertex 0.809017 0.587785 6.12323e-17
    endloop
  endfacet
  facet normal 0.69861 0.69861 -0.154555
    outer loop
      vertex 0.809017 0.587785 6.12323e-17
      vertex 0.769421 0.559017 -0.309017
      vertex 0.559017 0.769421 -0.309017
    endloop
  endfacet
  facet normal 0.69861 0.69861 -0.154555
    outer loop
      vertex 0.809017 0.587785 6.12323e-17
      vertex 0.559017 0.769421 -0.309017
      vertex 0.587785 0.809017 6.12323e-17
    endloop
  endfacet
  facet normal 0.448535 0.8803 -0.154555
    outer loop
      vertex 0.587785 0.809017 6.12323e-17
      vertex 0.559017 0.769421 -0.309017
      vertex 0.293893 0.904508 -0.309017
    endloop
  endfacet
  facet normal 0.448535 0.8803 -0.154555
    outer loop
      vertex 0.587785 0.809017 6.12323e-17
      vertex 0.293893 0.904508 -0.309017
      vertex 0.309017 0.951057 6.12323e-17
    endloop
  endfacet
  facet normal 0.154555 0.97582 -0.154555
    outer loop
      vertex 0.309017 0.951057 6.12323e-17
      vertex 0.293893 0.904508 -0.309017
      vertex 5.82354e-17 0.951057 -0.309017
    endloop
  endfacet
  facet normal 0.154555 0.97582 -0.154555
    outer loop
      vertex 0.309017 0.951057 6.12323e-17
      vertex 5.82354e-17 0.951057 -0.309017
      vertex 6.12323e-17 1 6.12323e-17
    endloop
  endfacet
  facet normal -0.154555 0.97582 -0.154555
    outer loop
      vertex 6.12323e-17 1 6.12323e-17
      vertex 5.82354e-17 0.951057 -0.309017
      vertex -0.293893 0.904508 -0.309017
    endloop
  endfacet
  facet normal -0.154555 0.97582 -0.154555
    outer loop
      vertex 6.12323e-17 1 6.12323e-17
      vertex -0.293893 0.904508 -0.309017
      vertex -0.309017 0.951057 6.12323e-17
    endloop
  endfacet
  facet normal -0.448535 0.8803 -0.154555
    outer loop
      vertex -0.309017 0.951057 6.12323e-17
      vertex -0.293893 0.904508 -0.309017
      vertex -0.559017 0.769421 -0.309017
    endloop
  endfacet
  facet normal -0.448535 0.8803 -0.154555
    outer loop
      vertex -0.309017 0.951057 6.12323e-17
      vertex -0.559017 0.769421 -0.309017
      vertex -0.587785 0.809017 6.12323e-17
    endloop
  endfacet
  facet normal -0.69861 0.69861 -0.154555
    outer loop
      vertex -0.587785 0.809017 6.12323e-17
      vertex -0.559017 0.769421 -0.309017
      vertex -0.769421 0.559017 -0.309017
    endloop
  endfacet
  facet normal -0.69861 0.69861 -0.154555
    outer loop
      vertex -0.587785 0.809017 6.12323e-17
      vertex -0.769421 0.559017 -0.309017
      vertex -0.809017 0.587785 6.12323e-17
    endloop
  endfacet
  facet normal -0.8803 0.448535 -0.154555
    outer loop
      vertex -0.809017 0.587785 6.12323e-17
      vertex -0.769421 0.559017 -0.309017
      vertex -0.904508 0.293893 -0.309017
    endloop
  endfacet
  facet normal -0.8803 0.448535 -0.154555
    outer loop
      vertex -0.809017 0.587785 6.12323e-17
      vertex -0.904508 0.293893 -0.309017
      vertex -0.951057 0.309017 6.12323e-17
    endloop
  endfacet
  facet normal -0.97582 0.154555 -0.154555
    outer loop
      vertex -0.951057 0.309017 6.12323e-17
      vertex -0.904508 0.293893 -0.309017
      vertex -0.951057 1.16471e-16 -0.309017
    endloop
  endfacet
  facet normal -0.97582 0.154555 -0.154555
    outer loop
      vertex -0.951057 0.309017 6.12323e-17
      vertex -0.951057 1.16471e-16 -0.309017
      vertex -1 1.22465e-16 6.12323e-17
    endloop
  endfacet
  facet normal -0.97582 -0.154555 -0.154555
    outer loop
      vertex -1 1.22465e-16 6.12323e-17
      vertex -0.951057 1.16471e-16 -0.309017
      vertex -0.904508 -0.293893 -0.309017
    endloop
  endfacet
  facet normal -0.97582 -0.154555 -0.154555
    outer loop
      vertex -1 1.22465e-16 6.12323e-17
      vertex -0.904508 -0.293893 -0.309017
      vertex -0.951057 -0.309017 6.12323e-17
    endloop
  endfacet
  facet normal -0.8803 -0.448535 -0.154555
    outer loop
      vertex -0.951057 -0.309017 6.12323e-17
      vertex -0.904508 -0.293893 -0.309017
      vertex -0.769421 -0.559017 -0.309017
    endloop
  endfacet
  facet normal -0.8803 -0.448535 -0.154555
    outer loop
      vertex -0.951057 -0.309017 6.12323e-17
      vertex -0.769421 -0.559017 -0.309017
      vertex -0.809017 -0.587785 6.12323e-17
    endloop
  endfacet
  facet normal -0.69861 -0.69861 -0.154555
    outer loop
      vertex -0.809017 -0.587785 6.12323e-17
      vertex -0.769421 -0.559017 -0.309017
      vertex -0.559017 -0.769421 -0.309017
    endloop
  endfacet
  facet normal -0.69861 -0.69861 -0.154555
    outer loop
      vertex -0.809017 -0.587785 6.12323e-17
      vertex -0.559017 -0.769421 -0.309017
      vertex -0.587785 -0.809017 6.12323e-17
    endloop
  endfacet
  facet normal -0.448535 -0.8803 -0.154555
    outer loop
      vertex -0.587785 -0.809017 6.12323e-17
      vertex -0.559017 -0.769421 -0.309017
      vertex -0.293893 -0.904508 -0.309017
    endloop
  endfacet
  facet normal -0.448535 -0.8803 -0.154555
    outer loop
      vertex -0.587785 -0.809017 6.12323e-17
      vertex -0.293893 -0.904508 -0.309017
      vertex -0.309017 -0.951057 6.12323e-17
    endloop
  endfacet
  facet normal -0.154555 -0.97582 -0.154555
    outer loop
      vertex -0.309017 -0.951057 6.12323e-17
      vertex -0.293893 -0.904508 -0.309017
      vertex -1.74706e-16 -0.951057 -0.309017
    endloop
  endfacet
  facet normal -0.154555 -0.97582 -0.154555
    outer loop
      vertex -0.309017 -0.951057 6.12323e-17
      vertex -1.74706e-16 -0.951057 -0.309017
      vertex -1.83697e-16 -1 6.12323e-17
    endloop
  endfacet
  facet normal 0.154555 -0.97582 -0.154555
    outer loop
      vertex -1.83697e-16 -1 6.12323e-17
      vertex -1.74706e-16 -0.951057 -0.309017
      vertex 0.293893 -0.904508 -0.309017
    endloop
  endfacet
  facet normal 0.154555 -0.97582 -0.154555
    outer loop
      vertex -1.83697e-16 -1 6.12323e-17
      vertex 0.293893 -0.904508 -0.309017
      vertex 0.309017 -0.951057 6.12323e-17
    endloop
  endfacet
  facet normal 0.448535 -0.8803 -0.154555
    outer loop
      vertex 0.309017 -0.951057 6.12323e-17
      vertex 0.293893 -0.904508 -0.309017
      vertex 0.559017 -0.769421 -0.309017
    endloop
  endfacet
  facet normal 0.448535 -0.8803 -0.154555
    outer loop
      vertex 0.309017 -0.951057 6.12323e-17
      vertex 0.559017 -0.769421 -0.309017
      vertex 0.587785 -0.809017 6.12323e-17
    endloop
  endfacet
  facet normal 0.69861 -0.69861 -0.154555
    outer loop
      vertex 0.587785 -0.809017 6.12323e-17
      vertex 0.559017 -0.769421 -0.309017
      vertex 0.769421 -0.559017 -0.309017
    endloop
  endfacet
  facet normal 0.69861 -0.69861 -0.154555
    outer loop
      vertex 0.587785 -0.809017 6.12323e-17
      vertex 0.769421 -0.559017 -0.309017
      vertex 0.809017 -0.587785 6.12323e-17
    endloop
  endfacet
  facet normal 0.8803 -0.448535 -0.154555
    outer loop
      vertex 0.809017 -0.587785 6.12323e-17
      vertex 0.769421 -0.559017 -0.309017
      vertex 0.904508 -0.293893 -0.309017
    endloop
  endfacet
  facet normal 0.8803 -0.448535 -0.154555
    outer loop
      vertex 0.809017 -0.587785 6.12323e-17
      vertex 0.904508 -0.293893 -0.309017
      vertex 0.951057 -0.309017 6.12323e-17
    endloop
  endfacet
  facet normal 0.97582 -0.154555 -0.154555
    outer loop
      vertex 0.951057 -0.309017 6.12323e-17
      vertex 0.904508 -0.293893 -0.309017
      vertex 0.951057 -2.32942e-16 -0.309017
    endloop
  endfacet
  facet normal 0.97582 -0.154555 -0.154555
    outer loop
      vertex 0.951057 -0.309017 6.12323e-17
      vertex 0.951057 -2.32942e-16 -0.309017
      vertex 1 -2.44929e-16 6.12323e-17
    endloop
  endfacet
  facet normal 0.882265 0.139737 -0.449536
    outer loop
      vertex 0.951057 0 -0.309017
      vertex 0.809017 0 -0.587785
      vertex 0.769421 0.25 -0.587785
    endloop
  endfacet
  facet normal 0.882265 0.139737 -0.449536
    outer loop
      vertex 0.951057 0 -0.309017
      vertex 0.769421 0.25 -0.587785
      vertex 0.904508 0.293893 -0.309017
    endloop
  endfacet
  facet normal 0.795902 0.405533 -0.449536
    outer loop
      vertex 0.904508 0.293893 -0.309017
      vertex 0.769421 0.25 -0.587785
      vertex 0.654508 0.475528 -0.587785
    endloop
  endfacet
  facet normal 0.795902 0.405533 -0.449536
    outer loop
      vertex 0.904508 0.293893 -0.309017
      vertex 0.654508 0.475528 -0.587785
      vertex 0.769421 0.559017 -0.309017
    endloop
  endfacet
  facet normal 0.631632 0.631632 -0.449536
    outer loop
      vertex 0.769421 0.559017 -0.309017
      vertex 0.654508 0.475528 -0.587785
      vertex 0.475528 0.654508 -0.587785
    endloop
  endfacet
  facet normal 0.631632 0.631632 -0.449536
    outer loop
      vertex 0.769421 0.559017 -0.309017
      vertex 0.475528 0.654508 -0.587785
      vertex 0.559017 0.769421 -0.309017
    endloop
  endfacet
  facet normal 0.405533 0.795902 -0.449536
    outer loop
      vertex 0.559017 0.769421 -0.309017
      vertex 0.475528 0.654508 -0.587785
      vertex 0.25 0.769421 -0.587785
    endloop
  endfacet
  facet normal 0.405533 0.795902 -0.449536
    outer loop
      vertex 0.559017 0.769421 -0.309017
      vertex 0.25 0.769421 -0.587785
      vertex 0.293893 0.904508 -0.309017
    endloop
  endfacet
  facet normal 0.139737 0.882265 -0.449536
    outer loop
      vertex 0.293893 0.904508 -0.309017
      vertex 0.25 0.769421 -0.587785
      vertex 4.9538e-17 0.809017 -0.587785
    endloop
  endfacet
  facet normal 0.139737 0.882265 -0.449536
    outer loop
      vertex 0.293893 0.904508 -0.309017
      vertex 4.9538e-17 0.809017 -0.587785
      vertex 5.82354e-17 0.951057 -0.309017
    endloop
  endfacet
  facet normal -0.139737 0.882265 -0.449536
    outer loop
      vertex 5.82354e-17 0.951057 -0.309017
      vertex 4.9538e-17 0.809017 -0.587785
      vertex -0.25 0.769421 -0.587785
    endloop
  endfacet
  facet normal -0.139737 0.882265 -0.449536
    outer loop
      vertex 5.82354e-17 0.951057 -0.309017
      vertex -0.25 0.769421 -0.587785
      vertex -0.293893 0.904508 -0.309017
    endloop
  endfacet
  facet normal -0.405533 0.795902 -0.449536
    outer loop
      vertex -0.293893 0.904508 -0.309017
      vertex -0.25 0.769421 -0.587785
      vertex -0.475528 0.654508 -0.587785
    endloop
  endfacet
  facet normal -0.405533 0.795902 -0.449536
    outer loop
      vertex -0.293893 0.904508 -0.309017
      vertex -0.475528 0.654508 -0.587785
      vertex -0.559017 0.769421 -0.309017
    endloop
  endfacet
  facet normal -0.631632 0.631632 -0.449536
    outer loop
      vertex -0.559017 0.769421 -0.309017
      vertex -0.475528 0.654508 -0.587785
      vertex -0.654508 0.475528 -0.587785
    endloop
  endfacet
  facet normal -0.631632 0.631632 -0.449536
    outer loop
      vertex -0.559017 0.769421 -0.309017
      vertex -0.654508 0.475528 -0.587785
      vertex -0.769421 0.559017 -0.309017
    endloop
  endfacet
  facet normal -0.795902 0.405533 -0.449536
    outer loop
      vertex -0.769421 0.559017 -0.309017
      vertex -0.654508 0.475528 -0.587785
      vertex -0.769421 0.25 -0.587785
    endloop
  endfacet
  facet normal -0.795902 0.405533 -0.449536
    outer loop
      vertex -0.769421 0.559017 -0.309017
      vertex -0.769421 0.25 -0.587785
      vertex -0.904508 0.293893 -0.309017
    endloop
  endfacet
  facet normal -0.882265 0.139737 -0.449536
    outer loop
      vertex -0.904508 0.293893 -0.309017
      vertex -0.769421 0.25 -0.587785
      vertex -0.809017 9.9076e-17 -0.587785
    endloop
  endfacet
  facet normal -0.882265 0.139737 -0.449536
    outer loop
      vertex -0.904508 0.293893 -0.309017
      vertex -0.809017 9.9076e-17 -0.587785
      vertex -0.951057 1.16471e-16 -0.309017
    endloop
  endfacet
  facet normal -0.882265 -0.139737 -0.449536
    outer loop
      vertex -0.951057 1.16471e-16 -0.309017
      vertex -0.809017 9.9076e-17 -0.587785
      vertex -0.769421 -0.25 -0.587785
    endloop
  endfacet
  facet normal -0.882265 -0.139737 -0.449536
    outer loop
      vertex -0.951057 1.16471e-16 -0.309017
      vertex -0.769421 -0.25 -0.587785
      vertex -0.904508 -0.293893 -0.309017
    endloop
  endfacet
  facet normal -0.795902 -0.405533 -0.449536
    outer loop
      vertex -0.904508 -0.293893 -0.309017
      vertex -0.769421 -0.25 -0.587785
      vertex -0.654508 -0.475528 -0.587785
    endloop
  endfacet
  facet normal -0.795902 -0.405533 -0.449536
    outer loop
      vertex -0.904508 -0.293893 -0.309017
      vertex -0.654508 -0.475528 -0.587785
      vertex -0.769421 -0.559017 -0.309017
    endloop
  endfacet
  facet normal -0.631632 -0.631632 -0.449536
    outer loop
      vertex -0.769421 -0.559017 -0.309017
      vertex -0.654508 -0.475528 -0.587785
      vertex -0.475528 -0.654508 -0.587785
    endloop
  endfacet
  facet normal -0.631632 -0.631632 -0.449536
    outer loop
      vertex -0.769421 -0.559017 -0.309017
      vertex -0.475528 -0.654508 -0.587785
      vertex -0.559017 -0.769421 -0.309017
    endloop
  endfacet
  facet normal -0.405533 -0.795902 -0.449536
    outer loop
      vertex -0.559017 -0.769421 -0.309017
      vertex -0.475528 -0.654508 -0.587785
      vertex -0.25 -0.769421 -0.587785
    endloop
  endfacet
  facet normal -0.405533 -0.795902 -0.449536
    outer loop
      vertex -0.559017 -0.769421 -0.309017
      vertex -0.25 -0.769421 -0.587785
      vertex -0.293893 -0.904508 -0.309017
    endloop
  endfacet
  facet normal -0.139737 -0.882265 -0.449536
    outer loop
      vertex -0.293893 -0.904508 -0.309017
      vertex -0.25 -0.769421 -0.587785
      vertex -1.48614e-16 -0.809017 -0.587785
    endloop
  endfacet
  facet normal -0.139737 -0.882265 -0.449536
    outer loop
      vertex -0.293893 -0.904508 -0.309017
      vertex -1.48614e-16 -0.809017 -0.587785
      vertex -1.74706e-16 -0.951057 -0.309017
    endloop
  endfacet
  facet normal 0.139737 -0.882265 -0.449536
    outer loop
      vertex -1.74706e-16 -0.951057 -0.309017
      vertex -1.48614e-16 -0.809017 -0.587785
      vertex 0.25 -0.769421 -0.587785
    endloop
  endfacet
  facet normal 0.139737 -0.882265 -0.449536
    outer loop
      vertex -1.74706e-16 -0.951057 -0.309017
      vertex 0.25 -0.769421 -0.587785
      vertex 0.293893 -0.904508 -0.309017
    endloop
  endfacet
  facet normal 0.405533 -0.795902 -0.449536
    outer loop
      vertex 0.293893 -0.904508 -0.309017
      vertex 0.25 -0.769421 -0.587785
      vertex 0.475528 -0.654508 -0.587785
    endloop
  endfacet
  facet normal 0.405533 -0.795902 -0.449536
    outer loop
      vertex 0.293893 -0.904508 -0.309017
      vertex 0.475528 -0.654508 -0.587785
      vertex 0.559017 -0.769421 -0.309017
    endloop
  endfacet
  facet normal 0.631632 -0.631632 -0.449536
    outer loop
      vertex 0.559017 -0.769421 -0.309017
      vertex 0.475528 -0.654508 -0.587785
      vertex 0.654508 -0.475528 -0.587785
    endloop
  endfacet
  facet normal 0.631632 -0.631632 -0.449536
    outer loop
      vertex 0.559017 -0.769421 -0.309017
      vertex 0.654508 -0.475528 -0.587785
      vertex 0.769421 -0.559017 -0.309017
    endloop
  endfacet
  facet normal 0.795902 -0.405533 -0.449536
    outer loop
      vertex 0.769421 -0.559017 -0.309017
      vertex 0.654508 -0.475528 -0.587785
      vertex 0.769421 -0.25 -0.587785
    endloop
  endfacet
  facet normal 0.795902 -0.405533 -0.449536
    outer loop
      vertex 0.769421 -0.559017 -0.309017
      vertex 0.769421 -0.25 -0.587785
      vertex 0.904508 -0.293893 -0.309017
    endloop
  endfacet
  facet normal 0.882265 -0.139737 -0.449536
    outer loop
      vertex 0.904508 -0.293893 -0.309017
      vertex 0.769421 -0.25 -0.587785
      vertex 0.809017 -1.98152e-16 -0.587785
    endloop
  endfacet
  facet normal 0.882265 -0.139737 -0.449536
    outer loop
      vertex 0.904508 -0.293893 -0.309017
      vertex 0.809017 -1.98152e-16 -0.587785
      vertex 0.951057 -2.32942e-16 -0.309017
    endloop
  endfacet
  facet normal 0.702714 0.111299 -0.702714
    outer loop
      vertex 0.809017 0 -0.587785
      vertex 0.587785 0 -0.809017
      vertex 0.559017 0.181636 -0.809017
    endloop
  endfacet
  facet normal 0.702714 0.111299 -0.702714
    outer loop
      vertex 0.809017 0 -0.587785
      vertex 0.559017 0.181636 -0.809017
      vertex 0.769421 0.25 -0.587785
    endloop
  endfacet
  facet normal 0.633927 0.323002 -0.702714
    outer loop
      vertex 0.769421 0.25 -0.587785
      vertex 0.559017 0.181636 -0.809017
      vertex 0.475528 0.345492 -0.809017
    endloop
  endfacet
  facet normal 0.633927 0.323002 -0.702714
    outer loop
      vertex 0.769421 0.25 -0.587785
      vertex 0.475528 0.345492 -0.809017
      vertex 0.654508 0.475528 -0.587785
    endloop
  endfacet
  facet normal 0.503087 0.503087 -0.702714
    outer loop
      vertex 0.654508 0.475528 -0.587785
      vertex 0.475528 0.345492 -0.809017
      vertex 0.345492 0.475528 -0.809017
    endloop
  endfacet
  facet normal 0.503087 0.503087 -0.702714
    outer loop
      vertex 0.654508 0.475528 -0.587785
      vertex 0.345492 0.475528 -0.809017
      vertex 0.475528 0.654508 -0.587785
    endloop
  endfacet
  facet normal 0.323002 0.633927 -0.702714
    outer loop
      vertex 0.475528 0.654508 -0.587785
      vertex 0.345492 0.475528 -0.809017
      vertex 0.181636 0.559017 -0.809017
    endloop
  endfacet
  facet normal 0.323002 0.633927 -0.702714
    outer loop
      vertex 0.475528 0.654508 -0.587785
      vertex 0.181636 0.559017 -0.809017
      vertex 0.25 0.769421 -0.587785
    endloop
  endfacet
  facet normal 0.111299 0.702714 -0.702714
    outer loop
      vertex 0.25 0.769421 -0.587785
      vertex 0.181636 0.559017 -0.809017
      vertex 3.59915e-17 0.587785 -0.809017
    endloop
  endfacet
  facet normal 0.111299 0.702714 -0.702714
    outer loop
      vertex 0.25 0.769421 -0.587785
      vertex 3.59915e-17 0.587785 -0.809017
      vertex 4.9538e-17 0.809017 -0.587785
    endloop
  endfacet
  facet normal -0.111299 0.702714 -0.702714
    outer loop
      vertex 4.9538e-17 0.809017 -0.587785
      vertex 3.59915e-17 0.587785 -0.809017
      vertex -0.181636 0.559017 -0.809017
    endloop
  endfacet
  facet normal -0.111299 0.702714 -0.702714
    outer loop
      vertex 4.9538e-17 0.809017 -0.587785
      vertex -0.181636 0.559017 -0.809017
      vertex -0.25 0.769421 -0.587785
    endloop
  endfacet
  facet normal -0.323002 0.633927 -0.702714
    outer loop
      vertex -0.25 0.769421 -0.587785
      vertex -0.181636 0.559017 -0.809017
      vertex -0.345492 0.475528 -0.809017
    endloop
  endfacet
  facet normal -0.323002 0.633927 -0.702714
    outer loop
      vertex -0.25 0.769421 -0.587785
      vertex -0.345492 0.475528 -0.809017
      vertex -0.475528 0.654508 -0.587785
    endloop
  endfacet
  facet normal -0.503087 0.503087 -0.702714
    outer loop
      vertex -0.475528 0.654508 -0.587785
      vertex -0.345492 0.475528 -0.809017
      vertex -0.475528 0.345492 -0.809017
    endloop
  endfacet
  facet normal -0.503087 0.503087 -0.702714
    outer loop
      vertex -0.475528 0.654508 -0.587785
      vertex -0.475528 0.345492 -0.809017
      vertex -0.654508 0.475528 -0.587785
    endloop
  endfacet
  facet normal -0.633927 0.323002 -0.702714
    outer loop
      vertex -0.654508 0.475528 -0.587785
      vertex -0.475528 0.345492 -0.809017
      vertex -0.559017 0.181636 -0.809017
    endloop
  endfacet
  facet normal -0.633927 0.323002 -0.702714
    outer loop
      vertex -0.654508 0.475528 -0.587785
      vertex -0.559017 0.181636 -0.809017
      vertex -0.769421 0.25 -0.587785
    endloop
  endfacet
  facet normal -0.702714 0.111299 -0.702714
    outer loop
      vertex -0.769421 0.25 -0.587785
      vertex -0.559017 0.181636 -0.809017
      vertex -0.587785 7.19829e-17 -0.809017
    endloop
  endfacet
  facet normal -0.702714 0.111299 -0.702714
    outer loop
      vertex -0.769421 0.25 -0.587785
      vertex -0.587785 7.19829e-17 -0.809017
      vertex -0.809017 9.9076e-17 -0.587785
    endloop
  endfacet
  facet normal -0.702714 -0.111299 -0.702714
    outer loop
      vertex -0.809017 9.9076e-17 -0.587785
      vertex -0.587785 7.19829e-17 -0.809017
      vertex -0.559017 -0.181636 -0.809017
    endloop
  endfacet
  facet normal -0.702714 -0.111299 -0.702714
    outer loop
      vertex -0.809017 9.9076e-17 -0.587785
      vertex -0.559017 -0.181636 -0.809017
      vertex -0.769421 -0.25 -0.587785
    endloop
  endfacet
  facet normal -0.633927 -0.323002 -0.702714
    outer loop
      vertex -0.769421 -0.25 -0.587785
      vertex -0.559017 -0.181636 -0.809017
      vertex -0.475528 -0.345492 -0.809017
    endloop
  endfacet
  facet normal -0.633927 -0.323002 -0.702714
    outer loop
      vertex -0.769421 -0.25 -0.587785
      vertex -0.475528 -0.345492 -0.809017
      vertex -0.654508 -0.475528 -0.587785
    endloop
  endfacet
  facet normal -0.503087 -0.503087 -0.702714
    outer loop
      vertex -0.654508 -0.475528 -0.587785
      vertex -0.475528 -0.345492 -0.809017
      vertex -0.345492 -0.475528 -0.809017
    endloop
  endfacet
  facet normal -0.503087 -0.503087 -0.702714
    outer loop
      vertex -0.654508 -0.475528 -0.587785
      vertex -0.345492 -0.475528 -0.809017
      vertex -0.475528 -0.654508 -0.587785
    endloop
  endfacet
  facet normal -0.323002 -0.633927 -0.702714
    outer loop
      vertex -0.475528 -0.654508 -0.587785
      vertex -0.345492 -0.475528 -0.809017
      vertex -0.181636 -0.559017 -0.809017
    endloop
  endfacet
  facet normal -0.323002 -0.633927 -0.702714
    outer loop
      vertex -0.475528 -0.654508 -0.587785
      vertex -0.181636 -0.559017 -0.809017
      vertex -0.25 -0.769421 -0.587785
    endloop
  endfacet
  facet normal -0.111299 -0.702714 -0.702714
    outer loop
      vertex -0.25 -0.769421 -0.587785
      vertex -0.181636 -0.559017 -0.809017
      vertex -1.07974e-16 -0.587785 -0.809017
    endloop
  endfacet
  facet normal -0.111299 -0.702714 -0.702714
    outer loop
      vertex -0.25 -0.769421 -0.587785
      vertex -1.07974e-16 -0.587785 -0.809017
      vertex -1.48614e-16 -0.809017 -0.587785
    endloop
  endfacet
  facet normal 0.111299 -0.702714 -0.702714
    outer loop
      vertex -1.48614e-16 -0.809017 -0.587785
      vertex -1.07974e-16 -0.587785 -0.809017
      vertex 0.181636 -0.559017 -0.809017
    endloop
  endfacet
  facet normal 0.111299 -0.702714 -0.702714
    outer loop
      vertex -1.48614e-16 -0.809017 -0.587785
      vertex 0.181636 -0.559017 -0.809017
      vertex 0.25 -0.769421 -0.587785
    endloop
  endfacet
  facet normal 0.323002 -0.633927 -0.702714
    outer loop
      vertex 0.25 -0.769421 -0.587785
      vertex 0.181636 -0.559017 -0.809017
      vertex 0.345492 -0.475528 -0.809017
    endloop
  endfacet
  facet normal 0.323002 -0.633927 -0.702714
    outer loop
      vertex 0.25 -0.769421 -0.587785
      vertex 0.345492 -0.475528 -0.809017
      vertex 0.475528 -0.654508 -0.587785
    endloop
  endfacet
  facet normal 0.503087 -0.503087 -0.702714
    outer loop
      vertex 0.475528 -0.654508 -0.587785
      vertex 0.345492 -0.475528 -0.809017
      vertex 0.475528 -0.345492 -0.809017
    endloop
  endfacet
  facet normal 0.503087 -0.503087 -0.702714
    outer loop
      vertex 0.475528 -0.654508 -0.587785
      vertex 0.475528 -0.345492 -0.809017
      vertex 0.654508 -0.475528 -0.587785
    endloop
  endfacet
  facet normal 0.633927 -0.323002 -0.702714
    outer loop
      vertex 0.654508 -0.475528 -0.587785
      vertex 0.475528 -0.345492 -0.809017
      vertex 0.559017 -0.181636 -0.809017
    endloop
  endfacet
  facet normal 0.633927 -0.323002 -0.702714
    outer loop
      vertex 0.654508 -0.475528 -0.587785
      vertex 0.559017 -0.181636 -0.809017
      vertex 0.769421 -0.25 -0.587785
    endloop
  endfacet
  facet normal 0.702714 -0.111299 -0.702714
    outer loop
      vertex 0.769421 -0.25 -0.587785
      vertex 0.559017 -0.181636 -0.809017
      vertex 0.587785 -1.43966e-16 -0.809017
    endloop
  endfacet
  facet normal 0.702714 -0.111299 -0.702714
    outer loop
      vertex 0.769421 -0.25 -0.587785
      vertex 0.587785 -1.43966e-16 -0.809017
      vertex 0.809017 -1.98152e-16 -0.587785
    endloop
  endfacet
  facet normal 0.452821 0.0717199 -0.888712
    outer loop
      vertex 0.587785 0 -0.809017
      vertex 0.309017 0 -0.951057
      vertex 0.293893 0.0954915 -0.951057
    endloop
  endfacet
  facet normal 0.452821 0.0717199 -0.888712
    outer loop
      vertex 0.587785 0 -0.809017
      vertex 0.293893 0.0954915 -0.951057
      vertex 0.559017 0.181636 -0.809017
    endloop
  endfacet
  facet normal 0.408496 0.208139 -0.888712
    outer loop
      vertex 0.559017 0.181636 -0.809017
      vertex 0.293893 0.0954915 -0.951057
      vertex 0.25 0.181636 -0.951057
    endloop
  endfacet
  facet normal 0.408496 0.208139 -0.888712
    outer loop
      vertex 0.559017 0.181636 -0.809017
      vertex 0.25 0.181636 -0.951057
      vertex 0.475528 0.345492 -0.809017
    endloop
  endfacet
  facet normal 0.324184 0.324184 -0.888712
    outer loop
      vertex 0.475528 0.345492 -0.809017
      vertex 0.25 0.181636 -0.951057
      vertex 0.181636 0.25 -0.951057
    endloop
  endfacet
  facet normal 0.324184 0.324184 -0.888712
    outer loop
      vertex 0.475528 0.345492 -0.809017
      vertex 0.181636 0.25 -0.951057
      vertex 0.345492 0.475528 -0.809017
    endloop
  endfacet
  facet normal 0.208139 0.408496 -0.888712
    outer loop
      vertex 0.345492 0.475528 -0.809017
      vertex 0.181636 0.25 -0.951057
      vertex 0.0954915 0.293893 -0.951057
    endloop
  endfacet
  facet normal 0.208139 0.408496 -0.888712
    outer loop
      vertex 0.345492 0.475528 -0.809017
      vertex 0.0954915 0.293893 -0.951057
      vertex 0.181636 0.559017 -0.809017
    endloop
  endfacet
  facet normal 0.0717199 0.452821 -0.888712
    outer loop
      vertex 0.181636 0.559017 -0.809017
      vertex 0.0954915 0.293893 -0.951057
      vertex 1.89218e-17 0.309017 -0.951057
    endloop
  endfacet
  facet normal 0.0717199 0.452821 -0.888712
    outer loop
      vertex 0.181636 0.559017 -0.809017
      vertex 1.89218e-17 0.309017 -0.951057
      vertex 3.59915e-17 0.587785 -0.809017
    endloop
  endfacet
  facet normal -0.0717199 0.452821 -0.888712
    outer loop
      vertex 3.59915e-17 0.587785 -0.809017
      vertex 1.89218e-17 0.309017 -0.951057
      vertex -0.0954915 0.293893 -0.951057
    endloop
  endfacet
  facet normal -0.0717199 0.452821 -0.888712
    outer loop
      vertex 3.59915e-17 0.587785 -0.809017
      vertex -0.0954915 0.293893 -0.951057
      vertex -0.181636 0.559017 -0.809017
    endloop
  endfacet
  facet normal -0.208139 0.408496 -0.888712
    outer loop
      vertex -0.181636 0.559017 -0.809017
      vertex -0.0954915 0.293893 -0.951057
      vertex -0.181636 0.25 -0.951057
    endloop
  endfacet
  facet normal -0.208139 0.408496 -0.888712
    outer loop
      vertex -0.181636 0.559017 -0.809017
      vertex -0.181636 0.25 -0.951057
      vertex -0.345492 0.475528 -0.809017
    endloop
  endfacet
  facet normal -0.324184 0.324184 -0.888712
    outer loop
      vertex -0.345492 0.475528 -0.809017
      vertex -0.181636 0.25 -0.951057
      vertex -0.25 0.181636 -0.951057
    endloop
  endfacet
  facet normal -0.324184 0.324184 -0.888712
    outer loop
      vertex -0.345492 0.475528 -0.809017
      vertex -0.25 0.181636 -0.951057
      vertex -0.475528 0.345492 -0.809017
    endloop
  endfacet
  facet normal -0.408496 0.208139 -0.888712
    outer loop
      vertex -0.475528 0.345492 -0.809017
      vertex -0.25 0.181636 -0.951057
      vertex -0.293893 0.0954915 -0.951057
    endloop
  endfacet
  facet normal -0.408496 0.208139 -0.888712
    outer loop
      vertex -0.475528 0.345492 -0.809017
      vertex -0.293893 0.0954915 -0.951057
      vertex -0.559017 0.181636 -0.809017
    endloop
  endfacet
  facet normal -0.452821 0.0717199 -0.888712
    outer loop
      vertex -0.559017 0.181636 -0.809017
      vertex -0.293893 0.0954915 -0.951057
      vertex -0.309017 3.78437e-17 -0.951057
    endloop
  endfacet
  facet normal -0.452821 0.0717199 -0.888712
    outer loop
      vertex -0.559017 0.181636 -0.809017
      vertex -0.309017 3.78437e-17 -0.951057
      vertex -0.587785 7.19829e-17 -0.809017
    endloop
  endfacet
  facet normal -0.452821 -0.0717199 -0.888712
    outer loop
      vertex -0.587785 7.19829e-17 -0.809017
      vertex -0.309017 3.78437e-17 -0.951057
      vertex -0.293893 -0.0954915 -0.951057
    endloop
  endfacet
  facet normal -0.452821 -0.0717199 -0.888712
    outer loop
      vertex -0.587785 7.19829e-17 -0.809017
      vertex -0.293893 -0.0954915 -0.951057
      vertex -0.559017 -0.181636 -0.809017
    endloop
  endfacet
  facet normal -0.408496 -0.208139 -0.888712
    outer loop
      vertex -0.559017 -0.181636 -0.809017
      vertex -0.293893 -0.0954915 -0.951057
      vertex -0.25 -0.181636 -0.951057
    endloop
  endfacet
  facet normal -0.408496 -0.208139 -0.888712
    outer loop
      vertex -0.559017 -0.181636 -0.809017
      vertex -0.25 -0.181636 -0.951057
      vertex -0.475528 -0.345492 -0.809017
    endloop
  endfacet
  facet normal -0.324184 -0.324184 -0.888712
    outer loop
      vertex -0.475528 -0.345492 -0.809017
      vertex -0.25 -0.181636 -0.951057
      vertex -0.181636 -0.25 -0.951057
    endloop
  endfacet
  facet normal -0.324184 -0.324184 -0.888712
    outer loop
      vertex -0.475528 -0.345492 -0.809017
      vertex -0.181636 -0.25 -0.951057
      vertex -0.345492 -0.475528 -0.809017
    endloop
  endfacet
  facet normal -0.208139 -0.408496 -0.888712
    outer loop
      vertex -0.345492 -0.475528 -0.809017
      vertex -0.181636 -0.25 -0.951057
      vertex -0.0954915 -0.293893 -0.951057
    endloop
  endfacet
  facet normal -0.208139 -0.408496 -0.888712
    outer loop
      vertex -0.345492 -0.475528 -0.809017
      vertex -0.0954915 -0.293893 -0.951057
      vertex -0.181636 -0.559017 -0.809017
    endloop
  endfacet
  facet normal -0.0717199 -0.452821 -0.888712
    outer loop
      vertex -0.181636 -0.559017 -0.809017
      vertex -0.0954915 -0.293893 -0.951057
      vertex -5.67655e-17 -0.309017 -0.951057
    endloop
  endfacet
  facet normal -0.0717199 -0.452821 -0.888712
    outer loop
      vertex -0.181636 -0.559017 -0.809017
      vertex -5.67655e-17 -0.309017 -0.951057
      vertex -1.07974e-16 -0.587785 -0.809017
    endloop
  endfacet
  facet normal 0.0717199 -0.452821 -0.888712
    outer loop
      vertex -1.07974e-16 -0.587785 -0.809017
      vertex -5.67655e-17 -0.309017 -0.951057
      vertex 0.0954915 -0.293893 -0.951057
    endloop
  endfacet
  facet normal 0.0717199 -0.452821 -0.888712
    outer loop
      vertex -1.07974e-16 -0.587785 -0.809017
      vertex 0.0954915 -0.293893 -0.951057
      vertex 0.181636 -0.559017 -0.809017
    endloop
  endfacet
  facet normal 0.208139 -0.408496 -0.888712
    outer loop
      vertex 0.181636 -0.559017 -0.809017
      vertex 0.0954915 -0.293893 -0.951057
      vertex 0.181636 -0.25 -0.951057
    endloop
  endfacet
  facet normal 0.208139 -0.408496 -0.888712
    outer loop
      vertex 0.181636 -0.559017 -0.809017
      vertex 0.181636 -0.25 -0.951057
      vertex 0.345492 -0.475528 -0.809017
    endloop
  endfacet
  facet normal 0.324184 -0.324184 -0.888712
    outer loop
      vertex 0.345492 -0.475528 -0.809017
      vertex 0.181636 -0.25 -0.951057
      vertex 0.25 -0.181636 -0.951057
    endloop
  endfacet
  facet normal 0.324184 -0.324184 -0.888712
    outer loop
      vertex 0.345492 -0.475528 -0.809017
      vertex 0.25 -0.181636 -0.951057
      vertex 0.475528 -0.345492 -0.809017
    endloop
  endfacet
  facet normal 0.408496 -0.208139 -0.888712
    outer loop
      vertex 0.475528 -0.345492 -0.809017
      vertex 0.25 -0.181636 -0.951057
      vertex 0.293893 -0.0954915 -0.951057
    endloop
  endfacet
  facet normal 0.408496 -0.208139 -0.888712
    outer loop
      vertex 0.475528 -0.345492 -0.809017
      vertex 0.293893 -0.0954915 -0.951057
      vertex 0.559017 -0.181636 -0.809017
    endloop
  endfacet
  facet normal 0.452821 -0.0717199 -0.888712
    outer loop
      vertex 0.559017 -0.181636 -0.809017
      vertex 0.293893 -0.0954915 -0.951057
      vertex 0.309017 -7.56873e-17 -0.951057
    endloop
  endfacet
  facet normal 0.452821 -0.0717199 -0.888712
    outer loop
      vertex 0.559017 -0.181636 -0.809017
      vertex 0.309017 -7.56873e-17 -0.951057
      vertex 0.587785 -1.43966e-16 -0.809017
    endloop
  endfacet
  facet normal 0.156386 0.0247692 -0.987385
    outer loop
      vertex 0.309017 0 -0.951057
      vertex 1.16471e-16 3.78437e-17 -1
      vertex 0.293893 0.0954915 -0.951057
    endloop
  endfacet
  facet normal 0.141078 0.071883 -0.987385
    outer loop
      vertex 0.293893 0.0954915 -0.951057
      vertex 9.9076e-17 7.19829e-17 -1
      vertex 0.25 0.181636 -0.951057
    endloop
  endfacet
  facet normal 0.11196 0.11196 -0.987385
    outer loop
      vertex 0.25 0.181636 -0.951057
      vertex 7.19829e-17 9.9076e-17 -1
      vertex 0.181636 0.25 -0.951057
    endloop
  endfacet
  facet normal 0.071883 0.141078 -0.987385
    outer loop
      vertex 0.181636 0.25 -0.951057
      vertex 3.78437e-17 1.16471e-16 -1
      vertex 0.0954915 0.293893 -0.951057
    endloop
  endfacet
  facet normal 0.0247692 0.156386 -0.987385
    outer loop
      vertex 0.0954915 0.293893 -0.951057
      vertex 7.4988e-33 1.22465e-16 -1
      vertex 1.89218e-17 0.309017 -0.951057
    endloop
  endfacet
  facet normal -0.0247692 0.156386 -0.987385
    outer loop
      vertex 1.89218e-17 0.309017 -0.951057
      vertex -3.78437e-17 1.16471e-16 -1
      vertex -0.0954915 0.293893 -0.951057
    endloop
  endfacet
  facet normal -0.071883 0.141078 -0.987385
    outer loop
      vertex -0.0954915 0.293893 -0.951057
      vertex -7.19829e-17 9.9076e-17 -1
      vertex -0.181636 0.25 -0.951057
    endloop
  endfacet
  facet normal -0.11196 0.11196 -0.987385
    outer loop
      vertex -0.181636 0.25 -0.951057
      vertex -9.9076e-17 7.19829e-17 -1
      vertex -0.25 0.181636 -0.951057
    endloop
  endfacet
  facet normal -0.141078 0.071883 -0.987385
    outer loop
      vertex -0.25 0.181636 -0.951057
      vertex -1.16471e-16 3.78437e-17 -1
      vertex -0.293893 0.0954915 -0.951057
    endloop
  endfacet
  facet normal -0.156386 0.0247692 -0.987385
    outer loop
      vertex -0.293893 0.0954915 -0.951057
      vertex -1.22465e-16 1.49976e-32 -1
      vertex -0.309017 3.78437e-17 -0.951057
    endloop
  endfacet
  facet normal -0.156386 -0.0247692 -0.987385
    outer loop
      vertex -0.309017 3.78437e-17 -0.951057
      vertex -1.16471e-16 -3.78437e-17 -1
      vertex -0.293893 -0.0954915 -0.951057
    endloop
  endfacet
  facet normal -0.141078 -0.071883 -0.987385
    outer loop
      vertex -0.293893 -0.0954915 -0.951057
      vertex -9.9076e-17 -7.19829e-17 -1
      vertex -0.25 -0.181636 -0.951057
    endloop
  endfacet
  facet normal -0.11196 -0.11196 -0.987385
    outer loop
      vertex -0.25 -0.181636 -0.951057
      vertex -7.19829e-17 -9.9076e-17 -1
      vertex -0.181636 -0.25 -0.951057
    endloop
  endfacet
  facet normal -0.071883 -0.141078 -0.987385
    outer loop
      vertex -0.181636 -0.25 -0.951057
      vertex -3.78437e-17 -1.16471e-16 -1
      vertex -0.0954915 -0.293893 -0.951057
    endloop
  endfacet
  facet normal -0.0247692 -0.156386 -0.987385
    outer loop
      vertex -0.0954915 -0.293893 -0.951057
      vertex -2.24964e-32 -1.22465e-16 -1
      vertex -5.67655e-17 -0.309017 -0.951057
    endloop
  endfacet
  facet normal 0.0247692 -0.156386 -0.987385
    outer loop
      vertex -5.67655e-17 -0.309017 -0.951057
      vertex 3.78437e-17 -1.16471e-16 -1
      vertex 0.0954915 -0.293893 -0.951057
    endloop
  endfacet
  facet normal 0.071883 -0.141078 -0.987385
    outer loop
      vertex 0.0954915 -0.293893 -0.951057
      vertex 7.19829e-17 -9.9076e-17 -1
      vertex 0.181636 -0.25 -0.951057
    endloop
  endfacet
  facet normal 0.11196 -0.11196 -0.987385
    outer loop
      vertex 0.181636 -0.25 -0.951057
      vertex 9.9076e-17 -7.19829e-17 -1
      vertex 0.25 -0.181636 -0.951057
    endloop
  endfacet
  facet normal 0.141078 -0.071883 -0.987385
    outer loop
      vertex 0.25 -0.181636 -0.951057
      vertex 1.16471e-16 -3.78437e-17 -1
      vertex 0.293893 -0.0954915 -0.951057
    endloop
  endfacet
  facet normal 0.156386 -0.0247692 -0.987385
    outer loop
      vertex 0.293893 -0.0954915 -0.951057
      vertex 1.22465e-16 -2.99952e-32 -1
      vertex 0.309017 -7.56873e-17 -0.951057
    endloop
  endfacet
endsolid sphere
